<svg width="236" height="170" viewBox="0 0 236 170" fill="none" xmlns="http://www.w3.org/2000/svg">
<path d="M9.70662 3.07614V16.0841H23.6746V3.07614H30.2986V34.7561H23.6746V21.4121H9.70662V34.7561H3.08262V3.07614H9.70662Z" fill="#999999"/>
<path d="M48.7966 35.2361C45.0206 35.2361 41.9966 34.1481 39.7246 31.9721C37.4526 29.7641 36.3166 26.6921 36.3166 22.7561C36.3166 20.1321 36.8286 17.8921 37.8526 16.0361C38.8766 14.1801 40.3006 12.7561 42.1246 11.7641C43.9806 10.7721 46.0926 10.2761 48.4606 10.2761C50.8926 10.2761 52.9566 10.7721 54.6526 11.7641C56.3486 12.7241 57.6446 14.0521 58.5406 15.7481C59.4366 17.4121 59.8846 19.3161 59.8846 21.4601C59.8846 22.1001 59.8686 22.7081 59.8366 23.2841C59.8046 23.8601 59.7566 24.3721 59.6926 24.8201H42.7486C43.0046 26.6761 43.6446 28.0681 44.6686 28.9961C45.7246 29.8921 47.0846 30.3401 48.7486 30.3401C50.1566 30.3401 51.2926 30.0681 52.1566 29.5241C53.0206 28.9801 53.6926 28.2281 54.1726 27.2681L59.4046 29.2841C58.6366 31.1721 57.2926 32.6441 55.3726 33.7001C53.4526 34.7241 51.2606 35.2361 48.7966 35.2361ZM48.4126 15.1241C45.3086 15.1241 43.4366 16.8361 42.7966 20.2601H53.5966C53.4046 18.5961 52.8606 17.3321 51.9646 16.4681C51.1006 15.5721 49.9166 15.1241 48.4126 15.1241Z" fill="#999999"/>
<path d="M79.1375 19.4441C79.1375 18.0681 78.7375 16.9961 77.9375 16.2281C77.1695 15.4601 76.1455 15.0761 74.8655 15.0761C73.6815 15.0761 72.6415 15.3801 71.7455 15.9881C70.8495 16.5961 70.1935 17.6041 69.7775 19.0121L64.1615 17.2841C64.7055 15.1721 65.8895 13.4761 67.7135 12.1961C69.5695 10.9161 72.0495 10.2761 75.1535 10.2761C78.2895 10.2761 80.8175 11.0281 82.7375 12.5321C84.6895 14.0041 85.6655 16.2121 85.6655 19.1561V28.9001C85.6655 30.1161 86.2415 30.7241 87.3935 30.7241C87.9375 30.7241 88.4495 30.6441 88.9295 30.4841L88.5455 34.5641C87.7135 34.9801 86.6735 35.1881 85.4255 35.1881C84.0495 35.1881 82.8495 34.9001 81.8255 34.3241C80.8335 33.7481 80.1615 32.8841 79.8095 31.7321C79.0415 32.8841 77.9375 33.7641 76.4975 34.3721C75.0895 34.9481 73.6335 35.2361 72.1295 35.2361C69.6975 35.2361 67.7615 34.6921 66.3215 33.6041C64.9135 32.4841 64.2095 30.8681 64.2095 28.7561C64.2095 26.9641 64.7855 25.5081 65.9375 24.3881C67.0895 23.2361 68.7375 22.4521 70.8815 22.0361L79.1375 20.3561V19.4441ZM70.7855 28.1321C70.7855 28.9321 71.0735 29.5401 71.6495 29.9561C72.2575 30.3721 72.9775 30.5801 73.8095 30.5801C74.7375 30.5801 75.6015 30.4361 76.4015 30.1481C77.2015 29.8601 77.8575 29.3801 78.3695 28.7081C78.8815 28.0041 79.1375 27.0761 79.1375 25.9241V24.4361L74.0975 25.4441C73.0095 25.6681 72.1775 25.9721 71.6015 26.3561C71.0575 26.7081 70.7855 27.3001 70.7855 28.1321Z" fill="#999999"/>
<path d="M101.998 35.2361C100.014 35.2361 98.2382 34.7401 96.6702 33.7481C95.1342 32.7561 93.9182 31.3481 93.0222 29.5241C92.1582 27.6681 91.7262 25.4281 91.7262 22.8041C91.7262 20.1481 92.1902 17.8921 93.1182 16.0361C94.0462 14.1481 95.2942 12.7241 96.8622 11.7641C98.4622 10.7721 100.254 10.2761 102.238 10.2761C103.966 10.2761 105.454 10.6921 106.702 11.5241C107.95 12.3561 108.894 13.4601 109.534 14.8361V0.244141H116.11V34.7561H110.206L109.918 30.1001C109.246 31.7001 108.206 32.9641 106.798 33.8921C105.39 34.7881 103.79 35.2361 101.998 35.2361ZM103.918 30.1961C105.614 30.1961 106.974 29.5401 107.998 28.2281C109.022 26.8841 109.534 24.9961 109.534 22.5641C109.534 20.2601 109.022 18.4841 107.998 17.2361C107.006 15.9561 105.678 15.3161 104.014 15.3161C102.222 15.3161 100.814 15.9561 99.7902 17.2361C98.7982 18.4841 98.3022 20.3241 98.3022 22.7561C98.3022 25.1881 98.7982 27.0441 99.7902 28.3241C100.782 29.5721 102.158 30.1961 103.918 30.1961Z" fill="#999999"/>
<path d="M129.5 0.244141V27.3641C129.5 28.4841 129.692 29.2681 130.076 29.7161C130.46 30.1641 131.1 30.3881 131.996 30.3881C132.54 30.3881 132.988 30.3561 133.34 30.2921C133.692 30.2281 134.14 30.1001 134.684 29.9081L134.108 34.2281C133.564 34.5481 132.876 34.7881 132.044 34.9481C131.244 35.1401 130.444 35.2361 129.644 35.2361C127.308 35.2361 125.596 34.6761 124.508 33.5561C123.452 32.4041 122.924 30.5801 122.924 28.0841V0.244141H129.5Z" fill="#999999"/>
<path d="M141.66 7.30014C138.94 7.30014 137.58 6.13214 137.58 3.79614C137.58 1.42814 138.94 0.244141 141.66 0.244141C144.38 0.244141 145.74 1.42814 145.74 3.79614C145.74 6.13214 144.38 7.30014 141.66 7.30014ZM144.924 10.7561V34.7561H138.348V10.7561H144.924Z" fill="#999999"/>
<path d="M151.895 34.7561V10.7561H157.799L158.039 15.2681C158.775 13.6041 159.847 12.3561 161.255 11.5241C162.695 10.6921 164.343 10.2761 166.199 10.2761C168.695 10.2761 170.759 11.0121 172.391 12.4841C174.023 13.9241 174.839 16.1001 174.839 19.0121V34.7561H168.263V20.8841C168.263 18.8361 167.847 17.4281 167.015 16.6601C166.215 15.8601 165.191 15.4601 163.943 15.4601C163.047 15.4601 162.167 15.6841 161.303 16.1321C160.471 16.5481 159.783 17.2361 159.239 18.1961C158.727 19.1561 158.471 20.4361 158.471 22.0361V34.7561H151.895Z" fill="#999999"/>
<path d="M192.75 35.2361C188.974 35.2361 185.95 34.1481 183.678 31.9721C181.406 29.7641 180.27 26.6921 180.27 22.7561C180.27 20.1321 180.782 17.8921 181.806 16.0361C182.83 14.1801 184.254 12.7561 186.078 11.7641C187.934 10.7721 190.046 10.2761 192.414 10.2761C194.846 10.2761 196.91 10.7721 198.606 11.7641C200.302 12.7241 201.598 14.0521 202.494 15.7481C203.39 17.4121 203.838 19.3161 203.838 21.4601C203.838 22.1001 203.822 22.7081 203.79 23.2841C203.758 23.8601 203.71 24.3721 203.646 24.8201H186.702C186.958 26.6761 187.598 28.0681 188.622 28.9961C189.678 29.8921 191.038 30.3401 192.702 30.3401C194.11 30.3401 195.246 30.0681 196.11 29.5241C196.974 28.9801 197.646 28.2281 198.126 27.2681L203.358 29.2841C202.59 31.1721 201.246 32.6441 199.326 33.7001C197.406 34.7241 195.214 35.2361 192.75 35.2361ZM192.366 15.1241C189.262 15.1241 187.39 16.8361 186.75 20.2601H197.55C197.358 18.5961 196.814 17.3321 195.918 16.4681C195.054 15.5721 193.87 15.1241 192.366 15.1241Z" fill="#999999"/>
<path d="M229.52 34.7561V14.6921C229.52 13.9561 229.52 13.2041 229.52 12.4361C229.552 11.6361 229.584 10.8201 229.616 9.98814C228.528 11.0121 227.312 11.8921 225.968 12.6281C224.624 13.3321 223.248 13.8281 221.84 14.1161L220.976 8.54814C221.68 8.45214 222.496 8.22814 223.424 7.87614C224.352 7.52414 225.28 7.09214 226.208 6.58014C227.168 6.06814 228.032 5.50814 228.8 4.90014C229.6 4.29214 230.208 3.68414 230.624 3.07614H236V34.7561H229.52Z" fill="#999999"/>
<path d="M6.12262 68.6361V77.3081H15.4346V68.6361H19.8506V89.7561H15.4346V80.8601H6.12262V89.7561H1.70662V68.6361H6.12262Z" fill="#999999"/>
<path d="M32.1826 90.0761C29.6653 90.0761 27.6493 89.3508 26.1346 87.9001C24.62 86.4281 23.8626 84.3801 23.8626 81.7561C23.8626 80.0068 24.204 78.5135 24.8866 77.2761C25.5693 76.0388 26.5186 75.0895 27.7346 74.4281C28.972 73.7668 30.38 73.4361 31.9586 73.4361C33.58 73.4361 34.956 73.7668 36.0866 74.4281C37.2173 75.0681 38.0813 75.9535 38.6786 77.0841C39.276 78.1935 39.5746 79.4628 39.5746 80.8921C39.5746 81.3188 39.564 81.7241 39.5426 82.1081C39.5213 82.4921 39.4893 82.8335 39.4466 83.1321H28.1506C28.3213 84.3695 28.748 85.2975 29.4306 85.9161C30.1346 86.5135 31.0413 86.8121 32.1506 86.8121C33.0893 86.8121 33.8466 86.6308 34.4226 86.2681C34.9986 85.9055 35.4466 85.4041 35.7666 84.7641L39.2546 86.1081C38.7426 87.3668 37.8466 88.3481 36.5666 89.0521C35.2866 89.7348 33.8253 90.0761 32.1826 90.0761ZM31.9266 76.6681C29.8573 76.6681 28.6093 77.8095 28.1826 80.0921H35.3826C35.2546 78.9828 34.892 78.1401 34.2946 77.5641C33.7186 76.9668 32.9293 76.6681 31.9266 76.6681Z" fill="#999999"/>
<path d="M52.4099 79.5481C52.4099 78.6308 52.1432 77.9161 51.6099 77.4041C51.0979 76.8921 50.4152 76.6361 49.5619 76.6361C48.7725 76.6361 48.0792 76.8388 47.4819 77.2441C46.8845 77.6495 46.4472 78.3215 46.1699 79.2601L42.4259 78.1081C42.7885 76.7001 43.5779 75.5695 44.7939 74.7161C46.0312 73.8628 47.6845 73.4361 49.7539 73.4361C51.8445 73.4361 53.5299 73.9375 54.8099 74.9401C56.1112 75.9215 56.7619 77.3935 56.7619 79.3561V85.8521C56.7619 86.6628 57.1459 87.0681 57.9139 87.0681C58.2765 87.0681 58.6179 87.0148 58.9379 86.9081L58.6819 89.6281C58.1272 89.9055 57.4339 90.0441 56.6019 90.0441C55.6845 90.0441 54.8845 89.8521 54.2019 89.4681C53.5405 89.0841 53.0925 88.5081 52.8579 87.7401C52.3459 88.5081 51.6099 89.0948 50.6499 89.5001C49.7112 89.8841 48.7405 90.0761 47.7379 90.0761C46.1165 90.0761 44.8259 89.7135 43.8659 88.9881C42.9272 88.2415 42.4579 87.1641 42.4579 85.7561C42.4579 84.5615 42.8419 83.5908 43.6099 82.8441C44.3779 82.0761 45.4765 81.5535 46.9059 81.2761L52.4099 80.1561V79.5481ZM46.8419 85.3401C46.8419 85.8735 47.0339 86.2788 47.4179 86.5561C47.8232 86.8335 48.3032 86.9721 48.8579 86.9721C49.4765 86.9721 50.0525 86.8761 50.5859 86.6841C51.1192 86.4921 51.5565 86.1721 51.8979 85.7241C52.2392 85.2548 52.4099 84.6361 52.4099 83.8681V82.8761L49.0499 83.5481C48.3245 83.6975 47.7699 83.9001 47.3859 84.1561C47.0232 84.3908 46.8419 84.7855 46.8419 85.3401Z" fill="#999999"/>
<path d="M67.6504 90.0761C66.3277 90.0761 65.1437 89.7455 64.0984 89.0841C63.0744 88.4228 62.2637 87.4841 61.6664 86.2681C61.0904 85.0308 60.8024 83.5375 60.8024 81.7881C60.8024 80.0175 61.1117 78.5135 61.7304 77.2761C62.349 76.0175 63.181 75.0681 64.2264 74.4281C65.293 73.7668 66.4877 73.4361 67.8104 73.4361C68.9624 73.4361 69.9544 73.7135 70.7864 74.2681C71.6184 74.8228 72.2477 75.5588 72.6744 76.4761V66.7481H77.0584V89.7561H73.1224L72.9304 86.6521C72.4824 87.7188 71.789 88.5615 70.8504 89.1801C69.9117 89.7775 68.845 90.0761 67.6504 90.0761ZM68.9304 86.7161C70.061 86.7161 70.9677 86.2788 71.6504 85.4041C72.333 84.5081 72.6744 83.2495 72.6744 81.6281C72.6744 80.0921 72.333 78.9081 71.6504 78.0761C70.989 77.2228 70.1037 76.7961 68.9944 76.7961C67.7997 76.7961 66.861 77.2228 66.1784 78.0761C65.517 78.9081 65.1864 80.1348 65.1864 81.7561C65.1864 83.3775 65.517 84.6148 66.1784 85.4681C66.8397 86.3001 67.757 86.7161 68.9304 86.7161Z" fill="#999999"/>
<path d="M85.9849 66.7481V84.8281C85.9849 85.5748 86.1129 86.0975 86.3689 86.3961C86.6249 86.6948 87.0515 86.8441 87.6489 86.8441C88.0115 86.8441 88.3102 86.8228 88.5449 86.7801C88.7795 86.7375 89.0782 86.6521 89.4409 86.5241L89.0569 89.4041C88.6942 89.6175 88.2355 89.7775 87.6809 89.8841C87.1475 90.0121 86.6142 90.0761 86.0809 90.0761C84.5235 90.0761 83.3822 89.7028 82.6569 88.9561C81.9529 88.1881 81.6009 86.9721 81.6009 85.3081V66.7481H85.9849Z" fill="#999999"/>
<path d="M94.0916 71.4521C92.2783 71.4521 91.3716 70.6735 91.3716 69.1161C91.3716 67.5375 92.2783 66.7481 94.0916 66.7481C95.905 66.7481 96.8116 67.5375 96.8116 69.1161C96.8116 70.6735 95.905 71.4521 94.0916 71.4521ZM96.2676 73.7561V89.7561H91.8836V73.7561H96.2676Z" fill="#999999"/>
<path d="M100.915 89.7561V73.7561H104.851L105.011 76.7641C105.502 75.6548 106.216 74.8228 107.155 74.2681C108.115 73.7135 109.214 73.4361 110.451 73.4361C112.115 73.4361 113.491 73.9268 114.579 74.9081C115.667 75.8681 116.211 77.3188 116.211 79.2601V89.7561H111.827V80.5081C111.827 79.1428 111.55 78.2041 110.995 77.6921C110.462 77.1588 109.779 76.8921 108.947 76.8921C108.35 76.8921 107.763 77.0415 107.187 77.3401C106.632 77.6175 106.174 78.0761 105.811 78.7161C105.47 79.3561 105.299 80.2095 105.299 81.2761V89.7561H100.915Z" fill="#999999"/>
<path d="M128.151 90.0761C125.634 90.0761 123.618 89.3508 122.103 87.9001C120.589 86.4281 119.831 84.3801 119.831 81.7561C119.831 80.0068 120.173 78.5135 120.855 77.2761C121.538 76.0388 122.487 75.0895 123.703 74.4281C124.941 73.7668 126.349 73.4361 127.927 73.4361C129.549 73.4361 130.925 73.7668 132.055 74.4281C133.186 75.0681 134.05 75.9535 134.647 77.0841C135.245 78.1935 135.543 79.4628 135.543 80.8921C135.543 81.3188 135.533 81.7241 135.511 82.1081C135.49 82.4921 135.458 82.8335 135.415 83.1321H124.119C124.29 84.3695 124.717 85.2975 125.399 85.9161C126.103 86.5135 127.01 86.8121 128.119 86.8121C129.058 86.8121 129.815 86.6308 130.391 86.2681C130.967 85.9055 131.415 85.4041 131.735 84.7641L135.223 86.1081C134.711 87.3668 133.815 88.3481 132.535 89.0521C131.255 89.7348 129.794 90.0761 128.151 90.0761ZM127.895 76.6681C125.826 76.6681 124.578 77.8095 124.151 80.0921H131.351C131.223 78.9828 130.861 78.1401 130.263 77.5641C129.687 76.9668 128.898 76.6681 127.895 76.6681Z" fill="#999999"/>
<path d="M148.816 89.7561V86.7481C151.376 85.0415 153.424 83.5375 154.96 82.2361C156.496 80.9135 157.595 79.6975 158.256 78.5881C158.939 77.4788 159.28 76.3801 159.28 75.2921C159.28 74.3108 158.981 73.5108 158.384 72.8921C157.787 72.2521 156.944 71.9321 155.856 71.9321C154.661 71.9321 153.723 72.3375 153.04 73.1481C152.379 73.9588 152.016 75.1108 151.952 76.6041L148.144 75.1641C148.272 73.0095 149.051 71.3348 150.48 70.1401C151.931 68.9241 153.808 68.3161 156.112 68.3161C157.819 68.3161 159.227 68.6361 160.336 69.2761C161.467 69.8948 162.309 70.7161 162.864 71.7401C163.44 72.7641 163.728 73.8628 163.728 75.0361C163.728 77.0628 162.96 78.9615 161.424 80.7321C159.909 82.4815 157.552 84.3375 154.352 86.3001V86.3321C154.821 86.3108 155.44 86.2895 156.208 86.2681C156.997 86.2255 157.669 86.2041 158.224 86.2041H164.048V89.7561H148.816Z" fill="#999999"/>
<path d="M4.33062 118.916V125.42H11.3146V118.916H14.6266V134.756H11.3146V128.084H4.33062V134.756H1.01862V118.916H4.33062Z" fill="#999999"/>
<path d="M23.8756 134.996C21.9876 134.996 20.4756 134.452 19.3396 133.364C18.2036 132.26 17.6356 130.724 17.6356 128.756C17.6356 127.444 17.8916 126.324 18.4036 125.396C18.9156 124.468 19.6276 123.756 20.5396 123.26C21.4676 122.764 22.5236 122.516 23.7076 122.516C24.9236 122.516 25.9556 122.764 26.8036 123.26C27.6516 123.74 28.2996 124.404 28.7476 125.252C29.1956 126.084 29.4196 127.036 29.4196 128.108C29.4196 128.428 29.4116 128.732 29.3956 129.02C29.3796 129.308 29.3556 129.564 29.3236 129.788H20.8516C20.9796 130.716 21.2996 131.412 21.8116 131.876C22.3396 132.324 23.0196 132.548 23.8516 132.548C24.5556 132.548 25.1236 132.412 25.5556 132.14C25.9876 131.868 26.3236 131.492 26.5636 131.012L29.1796 132.02C28.7956 132.964 28.1236 133.7 27.1636 134.228C26.2036 134.74 25.1076 134.996 23.8756 134.996ZM23.6836 124.94C22.1316 124.94 21.1956 125.796 20.8756 127.508H26.2756C26.1796 126.676 25.9076 126.044 25.4596 125.612C25.0276 125.164 24.4356 124.94 23.6836 124.94Z" fill="#999999"/>
<path d="M39.0461 127.1C39.0461 126.412 38.8461 125.876 38.4461 125.492C38.0621 125.108 37.5501 124.916 36.9101 124.916C36.3181 124.916 35.7981 125.068 35.3501 125.372C34.9021 125.676 34.5741 126.18 34.3661 126.884L31.5581 126.02C31.8301 124.964 32.4221 124.116 33.3341 123.476C34.2621 122.836 35.5021 122.516 37.0541 122.516C38.6221 122.516 39.8861 122.892 40.8461 123.644C41.8221 124.38 42.3101 125.484 42.3101 126.956V131.828C42.3101 132.436 42.5981 132.74 43.1741 132.74C43.4461 132.74 43.7021 132.7 43.9421 132.62L43.7501 134.66C43.3341 134.868 42.8141 134.972 42.1901 134.972C41.5021 134.972 40.9021 134.828 40.3901 134.54C39.8941 134.252 39.5581 133.82 39.3821 133.244C38.9981 133.82 38.4461 134.26 37.7261 134.564C37.0221 134.852 36.2941 134.996 35.5421 134.996C34.3261 134.996 33.3581 134.724 32.6381 134.18C31.9341 133.62 31.5821 132.812 31.5821 131.756C31.5821 130.86 31.8701 130.132 32.4461 129.572C33.0221 128.996 33.8461 128.604 34.9181 128.396L39.0461 127.556V127.1ZM34.8701 131.444C34.8701 131.844 35.0141 132.148 35.3021 132.356C35.6061 132.564 35.9661 132.668 36.3821 132.668C36.8461 132.668 37.2781 132.596 37.6781 132.452C38.0781 132.308 38.4061 132.068 38.6621 131.732C38.9181 131.38 39.0461 130.916 39.0461 130.34V129.596L36.5261 130.1C35.9821 130.212 35.5661 130.364 35.2781 130.556C35.0061 130.732 34.8701 131.028 34.8701 131.444Z" fill="#999999"/>
<path d="M50.4764 134.996C49.4844 134.996 48.5964 134.748 47.8124 134.252C47.0444 133.756 46.4364 133.052 45.9884 132.14C45.5564 131.212 45.3404 130.092 45.3404 128.78C45.3404 127.452 45.5724 126.324 46.0364 125.396C46.5004 124.452 47.1244 123.74 47.9084 123.26C48.7084 122.764 49.6044 122.516 50.5964 122.516C51.4604 122.516 52.2044 122.724 52.8284 123.14C53.4524 123.556 53.9244 124.108 54.2444 124.796V117.5H57.5324V134.756H54.5804L54.4364 132.428C54.1004 133.228 53.5804 133.86 52.8764 134.324C52.1724 134.772 51.3724 134.996 50.4764 134.996ZM51.4364 132.476C52.2844 132.476 52.9644 132.148 53.4764 131.492C53.9884 130.82 54.2444 129.876 54.2444 128.66C54.2444 127.508 53.9884 126.62 53.4764 125.996C52.9804 125.356 52.3164 125.036 51.4844 125.036C50.5884 125.036 49.8844 125.356 49.3724 125.996C48.8764 126.62 48.6284 127.54 48.6284 128.756C48.6284 129.972 48.8764 130.9 49.3724 131.54C49.8684 132.164 50.5564 132.476 51.4364 132.476Z" fill="#999999"/>
<path d="M64.2273 117.5V131.06C64.2273 131.62 64.3233 132.012 64.5153 132.236C64.7073 132.46 65.0273 132.572 65.4753 132.572C65.7473 132.572 65.9713 132.556 66.1473 132.524C66.3233 132.492 66.5473 132.428 66.8193 132.332L66.5313 134.492C66.2593 134.652 65.9153 134.772 65.4993 134.852C65.0993 134.948 64.6993 134.996 64.2993 134.996C63.1313 134.996 62.2753 134.716 61.7313 134.156C61.2033 133.58 60.9393 132.668 60.9393 131.42V117.5H64.2273Z" fill="#999999"/>
<path d="M70.3074 121.028C68.9474 121.028 68.2674 120.444 68.2674 119.276C68.2674 118.092 68.9474 117.5 70.3074 117.5C71.6674 117.5 72.3474 118.092 72.3474 119.276C72.3474 120.444 71.6674 121.028 70.3074 121.028ZM71.9394 122.756V134.756H68.6514V122.756H71.9394Z" fill="#999999"/>
<path d="M75.4248 134.756V122.756H78.3768L78.4968 125.012C78.8648 124.18 79.4008 123.556 80.1048 123.14C80.8248 122.724 81.6488 122.516 82.5768 122.516C83.8248 122.516 84.8568 122.884 85.6728 123.62C86.4888 124.34 86.8968 125.428 86.8968 126.884V134.756H83.6088V127.82C83.6088 126.796 83.4008 126.092 82.9848 125.708C82.5848 125.308 82.0728 125.108 81.4488 125.108C81.0008 125.108 80.5608 125.22 80.1288 125.444C79.7128 125.652 79.3688 125.996 79.0968 126.476C78.8408 126.956 78.7128 127.596 78.7128 128.396V134.756H75.4248Z" fill="#999999"/>
<path d="M95.8522 134.996C93.9642 134.996 92.4522 134.452 91.3162 133.364C90.1802 132.26 89.6122 130.724 89.6122 128.756C89.6122 127.444 89.8682 126.324 90.3802 125.396C90.8922 124.468 91.6042 123.756 92.5162 123.26C93.4442 122.764 94.5002 122.516 95.6842 122.516C96.9002 122.516 97.9322 122.764 98.7802 123.26C99.6282 123.74 100.276 124.404 100.724 125.252C101.172 126.084 101.396 127.036 101.396 128.108C101.396 128.428 101.388 128.732 101.372 129.02C101.356 129.308 101.332 129.564 101.3 129.788H92.8282C92.9562 130.716 93.2762 131.412 93.7882 131.876C94.3162 132.324 94.9962 132.548 95.8282 132.548C96.5322 132.548 97.1002 132.412 97.5322 132.14C97.9642 131.868 98.3002 131.492 98.5402 131.012L101.156 132.02C100.772 132.964 100.1 133.7 99.1402 134.228C98.1802 134.74 97.0842 134.996 95.8522 134.996ZM95.6602 124.94C94.1082 124.94 93.1722 125.796 92.8522 127.508H98.2522C98.1562 126.676 97.8842 126.044 97.4362 125.612C97.0042 125.164 96.4122 124.94 95.6602 124.94Z" fill="#999999"/>
<path d="M111.351 134.756V132.5C113.271 131.22 114.807 130.092 115.959 129.116C117.111 128.124 117.935 127.212 118.431 126.38C118.943 125.548 119.199 124.724 119.199 123.908C119.199 123.172 118.975 122.572 118.527 122.108C118.079 121.628 117.447 121.388 116.631 121.388C115.735 121.388 115.031 121.692 114.519 122.3C114.023 122.908 113.751 123.772 113.703 124.892L110.847 123.812C110.943 122.196 111.527 120.94 112.599 120.044C113.687 119.132 115.095 118.676 116.823 118.676C118.103 118.676 119.159 118.916 119.991 119.396C120.839 119.86 121.471 120.476 121.887 121.244C122.319 122.012 122.535 122.836 122.535 123.716C122.535 125.236 121.959 126.66 120.807 127.988C119.671 129.3 117.903 130.692 115.503 132.164V132.188C115.855 132.172 116.319 132.156 116.895 132.14C117.487 132.108 117.991 132.092 118.407 132.092H122.775V134.756H111.351Z" fill="#999999"/>
<path d="M0.458618 169.756V160.796H2.37862L4.55462 166.636L5.13062 168.38H5.17862L5.75462 166.636L7.93062 160.796H9.83462V169.756H8.60262V164.556L8.71462 161.996H8.68262L5.73862 169.756H4.55462L1.61062 161.996H1.57862L1.67462 164.556V169.756H0.458618Z" fill="#999999"/>
<path d="M12.8492 169.756V160.796H19.5692V161.9H14.1292V164.668H18.3852V165.772H14.1292V168.652H19.7772V169.756H12.8492Z" fill="#999999"/>
<path d="M28.8375 160.796V161.9H25.5575V169.756H24.2775V161.9H20.9815V160.796H28.8375Z" fill="#999999"/>
<path d="M28.4789 169.756L32.1109 160.796H33.6309L37.2629 169.756H35.9029L34.9429 167.308H30.7989L29.8389 169.756H28.4789ZM32.4309 163.116L31.2309 166.204H34.5109L33.3109 163.116L32.8789 161.932H32.8629L32.4309 163.116Z" fill="#999999"/>
<path d="M45.8636 168.652H51.2076V169.756H44.5836V160.796H45.8636V168.652Z" fill="#999999"/>
<path d="M52.8539 169.756L56.4859 160.796H58.0059L61.6379 169.756H60.2779L59.3179 167.308H55.1739L54.2139 169.756H52.8539ZM56.8059 163.116L55.6059 166.204H58.8859L57.6859 163.116L57.2539 161.932H57.2379L56.8059 163.116Z" fill="#999999"/>
<path d="M63.5055 169.756V160.796H67.1055C68.2148 160.796 69.0255 161.015 69.5375 161.452C70.0495 161.879 70.3055 162.476 70.3055 163.244C70.3055 163.724 70.1615 164.145 69.8735 164.508C69.5855 164.86 69.1908 165.095 68.6895 165.212V165.228C69.3188 165.281 69.7882 165.516 70.0975 165.932C70.4068 166.337 70.5615 166.791 70.5615 167.292C70.5615 168.049 70.2628 168.652 69.6655 169.1C69.0788 169.537 68.2308 169.756 67.1215 169.756H63.5055ZM64.7855 164.7H67.2015C68.4175 164.7 69.0255 164.231 69.0255 163.292C69.0255 162.353 68.4175 161.884 67.2015 161.884H64.7855V164.7ZM64.7855 168.668H67.3135C68.6255 168.668 69.2815 168.188 69.2815 167.228C69.2815 166.268 68.6255 165.788 67.3135 165.788H64.7855V168.668Z" fill="#999999"/>
<path d="M72.9899 169.756V160.796H79.7099V161.9H74.2699V164.668H78.5259V165.772H74.2699V168.652H79.9179V169.756H72.9899Z" fill="#999999"/>
<path d="M83.4261 168.652H88.7701V169.756H82.1461V160.796H83.4261V168.652Z" fill="#999999"/>
</svg>
