<svg width="1610" height="531" viewBox="0 0 1610 531" fill="none" xmlns="http://www.w3.org/2000/svg">
<path style="fill: hsl(var(--color-hs-accent) 89%)" d="M254.56 303.162C219.153 304.568 116.418 226.439 115.012 191.033C113.607 155.626 162.395 141.655 197.801 140.249C233.208 138.843 276.319 111.097 301.855 177.968C339.586 321.077 289.966 301.756 254.56 303.162Z" fill="#FACCD7"/>
<path style="fill: hsl(var(--color-hs-accent) 89%)" d="M1412.9 351.224C1409.99 315.909 1483.69 209.951 1519 207.043C1554.32 204.136 1570.35 252.287 1573.26 287.602C1576.16 322.917 1605.71 364.812 1539.99 393.164C1398.61 436.934 1415.81 386.539 1412.9 351.224Z" fill="#FACCD7"/>
<path style="fill: hsl(var(--color-hs-accent) 89%)" d="M812.418 149C812.418 200.086 804.086 256 753 256C701.914 256 592 239.086 592 188C592 136.914 650.914 84 702 84C753.086 84 812.418 97.9137 812.418 149Z" fill="#FACCD7"/>
<path style="fill: var(--color-accent-100)"  d="M399.431 410.567C301.7 384.912 274.352 335.547 293.639 262.074C312.926 188.6 312.105 114.415 409.836 140.07C507.568 165.725 698.427 226.52 679.14 299.994C659.853 373.468 497.162 436.222 399.431 410.567Z" fill="#FEF1F4"/>
<path style="fill: var(--color-accent-100)" d="M1302.06 87.6934C1442.27 116.178 1488.63 165.208 1474.25 236.027C1459.86 306.845 1473.55 379.079 1333.34 350.595C1193.13 322.11 769.685 495.819 796.117 365.717C810.504 294.898 1161.85 59.2088 1302.06 87.6934Z" fill="#FEF1F4"/>
<circle style="fill: var(--color-primary)" cx="782" cy="163" r="13" fill="#4C343A"/>
<path style="fill: var(--color-accent-100)" d="M22.8515 157.212C14.617 122.747 67.4893 102.961 101.954 94.7261C136.418 86.4916 106.617 122.747 114.852 157.212C123.086 191.676 175.513 194.212 114.852 232.212C80.3872 240.446 31.086 191.676 22.8515 157.212Z" fill="#FEF1F4"/>
<circle style="fill: var(--color-highlight)" cx="243" cy="364" r="13" fill="#565671"/>
<circle style="fill: var(--color-accent-900)" cx="1597" cy="188" r="13" fill="#AC1037"/>
<circle style="fill: var(--color-dark)" cx="13" cy="162" r="13" fill="#6F6266"/>
</svg>
