<svg xmlns="http://www.w3.org/2000/svg" fill="none" viewBox="0 0 156 30"><defs/><path fill="currentcolor" style="fill: var(--logo-color, #4B3339)" d="M.093 23V.216h5.44v9.696c.47-1.067 1.141-1.867 2.016-2.4.874-.555 1.888-.832 3.04-.832 1.642 0 2.976.48 4 1.44s1.536 2.368 1.536 4.224V23h-5.44v-9.152c0-1.152-.214-1.941-.64-2.368-.406-.448-.95-.672-1.632-.672-.768 0-1.44.299-2.016.896-.576.576-.864 1.536-.864 2.88V23H.093zM27.744 23.32c-2.666 0-4.778-.725-6.335-2.176-1.537-1.45-2.304-3.499-2.304-6.144 0-1.75.351-3.243 1.055-4.48.726-1.259 1.707-2.208 2.945-2.848 1.258-.661 2.72-.992 4.383-.992 1.686 0 3.115.33 4.288.992 1.195.64 2.102 1.536 2.72 2.688.62 1.13.928 2.432.928 3.904 0 .405-.02.8-.063 1.184-.022.363-.043.672-.064.928H24.385c.149 1.11.511 1.91 1.087 2.4.576.47 1.334.704 2.272.704.811 0 1.451-.16 1.92-.48.491-.32.854-.768 1.088-1.344l4.353 1.44a5.11 5.11 0 01-1.569 2.336c-.725.619-1.6 1.088-2.623 1.408-1.003.32-2.06.48-3.169.48zm-.256-12.832c-1.727 0-2.752.992-3.072 2.976h5.857c-.235-1.984-1.163-2.976-2.785-2.976zM43.844.216V17.56c0 .704.117 1.205.352 1.504.234.299.63.448 1.184.448.32 0 .586-.021.8-.064.213-.043.47-.107.768-.192l-.352 3.264c-.384.235-.886.427-1.504.576a7.758 7.758 0 01-1.824.224c-1.707 0-2.944-.395-3.712-1.184-.768-.79-1.152-2.08-1.152-3.872V.216h5.44zM54.313.216V17.56c0 .704.117 1.205.351 1.504.235.299.63.448 1.184.448.32 0 .587-.021.8-.064.214-.043.47-.107.768-.192l-.351 3.264c-.384.235-.886.427-1.505.576a7.757 7.757 0 01-1.824.224c-1.706 0-2.944-.395-3.711-1.184-.768-.79-1.152-2.08-1.152-3.872V.216h5.44zM67.021 6.68c1.686 0 3.158.33 4.416.992a7.098 7.098 0 012.976 2.848c.726 1.237 1.088 2.73 1.088 4.48 0 1.75-.362 3.243-1.088 4.48a7.098 7.098 0 01-2.976 2.848c-1.258.661-2.73.992-4.416.992-1.664 0-3.136-.33-4.416-.992a7.353 7.353 0 01-2.976-2.848c-.704-1.237-1.056-2.73-1.056-4.48 0-1.75.352-3.243 1.056-4.48a7.353 7.353 0 012.976-2.848c1.28-.661 2.752-.992 4.416-.992zm0 3.872c-.938 0-1.674.352-2.208 1.056-.512.683-.768 1.813-.768 3.392 0 1.557.256 2.688.768 3.392.534.704 1.27 1.056 2.208 1.056.96 0 1.696-.352 2.208-1.056.534-.704.8-1.835.8-3.392 0-1.579-.266-2.71-.8-3.392-.512-.704-1.248-1.056-2.208-1.056zM80.653 17.496c1.174 0 2.038.395 2.593 1.184.576.79.864 1.707.864 2.752a6.2 6.2 0 01-.64 2.752 7.548 7.548 0 01-1.632 2.336c-.662.683-1.387 1.195-2.176 1.536l-2.209-1.632a8.026 8.026 0 002.337-1.472c.703-.597 1.194-1.237 1.471-1.92l-.16-.096c-.127.085-.277.15-.448.192-.149.043-.362.064-.64.064-.576 0-1.151-.213-1.728-.64-.554-.427-.831-1.088-.831-1.984 0-1.003.32-1.76.96-2.272a3.475 3.475 0 012.24-.8zM112.283 7l-5.824 16c-.598 1.685-1.248 3.03-1.952 4.032-.704 1.024-1.536 1.75-2.496 2.176-.96.448-2.112.672-3.456.672-.918 0-1.75-.096-2.497-.288a7.118 7.118 0 01-1.92-.8l1.088-3.68c.385.277.79.47 1.216.576.427.128.971.192 1.633.192.618 0 1.12-.107 1.504-.32.405-.192.725-.597.96-1.216l.416-.992L99.099 19l-4.8-12h5.984l2.464 9.12.768 3.392.896-3.52L106.875 7h5.408zM121.745 23.32c-2.667 0-4.779-.725-6.336-2.176-1.536-1.45-2.304-3.499-2.304-6.144 0-1.75.352-3.243 1.056-4.48.725-1.259 1.706-2.208 2.944-2.848 1.258-.661 2.72-.992 4.384-.992 1.685 0 3.114.33 4.288.992 1.194.64 2.101 1.536 2.72 2.688.618 1.13.928 2.432.928 3.904 0 .405-.022.8-.064 1.184-.022.363-.043.672-.064.928h-10.912c.149 1.11.512 1.91 1.088 2.4.576.47 1.333.704 2.272.704.81 0 1.45-.16 1.92-.48a2.84 2.84 0 001.088-1.344l4.352 1.44a5.118 5.118 0 01-1.568 2.336c-.726.619-1.6 1.088-2.624 1.408a10.36 10.36 0 01-3.168.48zm-.256-12.832c-1.728 0-2.752.992-3.072 2.976h5.856c-.235-1.984-1.163-2.976-2.784-2.976zM139.188 23.32c-1.6 0-3.083-.256-4.448-.768-1.366-.533-2.507-1.29-3.424-2.272l2.56-3.008c.533.683 1.237 1.259 2.112 1.728.896.448 1.888.672 2.976.672.661 0 1.205-.096 1.632-.288.426-.192.64-.49.64-.896a.913.913 0 00-.32-.704c-.214-.192-.64-.352-1.28-.48l-2.24-.448c-2.006-.405-3.435-1.003-4.288-1.792-.832-.81-1.248-1.867-1.248-3.168 0-.875.266-1.707.8-2.496.533-.79 1.354-1.44 2.464-1.952 1.109-.512 2.528-.768 4.256-.768 3.306 0 5.717.917 7.232 2.752l-2.592 2.944c-.512-.64-1.174-1.141-1.984-1.504-.811-.363-1.622-.544-2.432-.544-1.558 0-2.336.395-2.336 1.184 0 .277.128.523.384.736.277.213.778.384 1.504.512l2.912.576c1.642.32 2.826.875 3.552 1.664.725.768 1.088 1.707 1.088 2.816 0 1.557-.63 2.87-1.888 3.936-1.238 1.045-3.115 1.568-5.632 1.568zM152.218 17.496c1.003 0 1.782.256 2.336.768.576.512.864 1.227.864 2.144 0 .896-.288 1.6-.864 2.112-.554.512-1.333.768-2.336.768-1.002 0-1.792-.256-2.368-.768-.554-.512-.832-1.216-.832-2.112 0-.917.278-1.632.832-2.144.576-.512 1.366-.768 2.368-.768z"/></svg>