<svg width="252" height="48" viewBox="0 0 252 48" fill="none" xmlns="http://www.w3.org/2000/svg">
<path d="M0 36.8673V0H8.80259V15.6893C9.56203 13.9633 10.6494 12.6688 12.0647 11.8058C13.48 10.9083 15.1197 10.4595 16.9838 10.4595C19.6419 10.4595 21.7994 11.2362 23.4563 12.7896C25.1133 14.343 25.9417 16.6214 25.9417 19.6246V36.8673H17.1392V22.0583C17.1392 20.1942 16.794 18.9169 16.1036 18.2265C15.4477 17.5016 14.5674 17.1392 13.4628 17.1392C12.2201 17.1392 11.1327 17.6224 10.2006 18.589C9.26861 19.521 8.80259 21.0744 8.80259 23.2492V36.8673H0Z" fill="#4B3339"/>
<path d="M44.7439 37.3851C40.4289 37.3851 37.0115 36.2114 34.4915 33.8641C32.0061 31.5167 30.7633 28.2028 30.7633 23.9223C30.7633 21.0917 31.3329 18.6753 32.4721 16.6731C33.6458 14.6365 35.2337 13.1003 37.2358 12.0647C39.2725 10.9946 41.6371 10.4595 44.3297 10.4595C47.0568 10.4595 49.3696 10.9946 51.2682 12.0647C53.2013 13.1003 54.6684 14.5502 55.6695 16.4142C56.6706 18.2438 57.1711 20.3495 57.1711 22.7314C57.1711 23.3873 57.1366 24.0259 57.0676 24.6472C57.033 25.2341 56.9985 25.7346 56.964 26.1489H39.307C39.5487 27.9439 40.1355 29.2384 41.0676 30.0324C41.9996 30.7918 43.2251 31.1715 44.7439 31.1715C46.0557 31.1715 47.0913 30.9126 47.8507 30.3948C48.6447 29.877 49.2315 29.1521 49.6112 28.2201L56.6533 30.5502C56.17 32.0345 55.3243 33.2945 54.1161 34.3301C52.9424 35.3312 51.5271 36.0906 49.8701 36.6084C48.2477 37.1262 46.539 37.3851 44.7439 37.3851ZM44.3297 16.6214C41.5336 16.6214 39.8766 18.2265 39.3588 21.4369H48.8345C48.4548 18.2265 46.9532 16.6214 44.3297 16.6214Z" fill="#4B3339"/>
<path d="M70.7945 0V28.0647C70.7945 29.2039 70.9844 30.0151 71.3641 30.4984C71.7438 30.9817 72.3824 31.2233 73.2799 31.2233C73.7977 31.2233 74.2292 31.1888 74.5744 31.1197C74.9196 31.0507 75.3339 30.9471 75.8171 30.8091L75.2476 36.0906C74.6262 36.4703 73.815 36.781 72.8139 37.0227C71.8128 37.2643 70.829 37.3851 69.8625 37.3851C67.1009 37.3851 65.0987 36.7465 63.856 35.4693C62.6133 34.192 61.9919 32.1036 61.9919 29.2039V0H70.7945Z" fill="#4B3339"/>
<path d="M87.7342 0V28.0647C87.7342 29.2039 87.9241 30.0151 88.3038 30.4984C88.6835 30.9817 89.3221 31.2233 90.2197 31.2233C90.7375 31.2233 91.169 31.1888 91.5142 31.1197C91.8594 31.0507 92.2736 30.9471 92.7569 30.8091L92.1873 36.0906C91.5659 36.4703 90.7547 36.781 89.7536 37.0227C88.7526 37.2643 87.7687 37.3851 86.8022 37.3851C84.0406 37.3851 82.0384 36.7465 80.7957 35.4693C79.553 34.192 78.9316 32.1036 78.9316 29.2039V0H87.7342Z" fill="#4B3339"/>
<path d="M108.299 10.4595C111.026 10.4595 113.407 10.9946 115.444 12.0647C117.515 13.1348 119.121 14.671 120.26 16.6731C121.433 18.6753 122.02 21.0917 122.02 23.9223C122.02 26.753 121.433 29.1694 120.26 31.1715C119.121 33.1737 117.515 34.7098 115.444 35.7799C113.407 36.8501 111.026 37.3851 108.299 37.3851C105.606 37.3851 103.224 36.8501 101.153 35.7799C99.1162 34.7098 97.5111 33.1737 96.3374 31.1715C95.1982 29.1694 94.6286 26.753 94.6286 23.9223C94.6286 21.0917 95.1982 18.6753 96.3374 16.6731C97.5111 14.671 99.1162 13.1348 101.153 12.0647C103.224 10.9946 105.606 10.4595 108.299 10.4595ZM108.299 16.7249C106.78 16.7249 105.589 17.2945 104.726 18.4337C103.897 19.5383 103.483 21.3679 103.483 23.9223C103.483 26.4423 103.897 28.2718 104.726 29.411C105.589 30.5502 106.78 31.1197 108.299 31.1197C109.852 31.1197 111.043 30.5502 111.871 29.411C112.734 28.2718 113.166 26.4423 113.166 23.9223C113.166 21.3679 112.734 19.5383 111.871 18.4337C111.043 17.2945 109.852 16.7249 108.299 16.7249Z" fill="#4B3339"/>
<path d="M130.357 27.9612C132.256 27.9612 133.654 28.5998 134.551 29.877C135.483 31.1543 135.949 32.6386 135.949 34.3301C135.949 35.8835 135.604 37.3679 134.914 38.7832C134.258 40.233 133.378 41.493 132.273 42.5631C131.203 43.6677 130.029 44.4962 128.752 45.0485L125.179 42.4078C126.595 41.8209 127.854 41.027 128.959 40.0259C130.098 39.0593 130.892 38.0237 131.341 36.9191L131.082 36.7638C130.875 36.9018 130.633 37.0054 130.357 37.0744C130.116 37.1435 129.77 37.178 129.322 37.178C128.39 37.178 127.458 36.8328 126.525 36.1424C125.628 35.452 125.179 34.3819 125.179 32.932C125.179 31.3096 125.697 30.0841 126.733 29.2557C127.803 28.3927 129.011 27.9612 130.357 27.9612Z" fill="#4B3339"/>
<path d="M181.537 10.9773L172.113 36.8673C171.146 39.5944 170.093 41.7691 168.954 43.3916C167.815 45.0485 166.469 46.2222 164.915 46.9126C163.362 47.6375 161.498 48 159.323 48C157.839 48 156.493 47.8447 155.284 47.534C154.111 47.2233 153.075 46.7918 152.178 46.2395L153.938 40.2848C154.559 40.7335 155.215 41.0442 155.906 41.2168C156.596 41.4239 157.476 41.5275 158.547 41.5275C159.548 41.5275 160.359 41.3549 160.98 41.0097C161.636 40.699 162.154 40.0431 162.534 39.0421L163.207 37.4369L160.203 30.3948L152.436 10.9773H162.119L166.106 25.7346L167.349 31.2233L168.799 25.5275L172.786 10.9773H181.537Z" fill="#4B3339"/>
<path d="M196.847 37.3851C192.532 37.3851 189.115 36.2114 186.595 33.8641C184.11 31.5167 182.867 28.2028 182.867 23.9223C182.867 21.0917 183.436 18.6753 184.576 16.6731C185.749 14.6365 187.337 13.1003 189.339 12.0647C191.376 10.9946 193.741 10.4595 196.433 10.4595C199.16 10.4595 201.473 10.9946 203.372 12.0647C205.305 13.1003 206.772 14.5502 207.773 16.4142C208.774 18.2438 209.275 20.3495 209.275 22.7314C209.275 23.3873 209.24 24.0259 209.171 24.6472C209.137 25.2341 209.102 25.7346 209.068 26.1489H191.411C191.652 27.9439 192.239 29.2384 193.171 30.0324C194.103 30.7918 195.329 31.1715 196.847 31.1715C198.159 31.1715 199.195 30.9126 199.954 30.3948C200.748 29.877 201.335 29.1521 201.715 28.2201L208.757 30.5502C208.274 32.0345 207.428 33.2945 206.22 34.3301C205.046 35.3312 203.631 36.0906 201.974 36.6084C200.351 37.1262 198.643 37.3851 196.847 37.3851ZM196.433 16.6214C193.637 16.6214 191.98 18.2265 191.462 21.4369H200.938C200.558 18.2265 199.057 16.6214 196.433 16.6214Z" fill="#4B3339"/>
<path d="M225.073 37.3851C222.484 37.3851 220.085 36.9709 217.875 36.1424C215.666 35.2794 213.819 34.0539 212.335 32.466L216.477 27.5987C217.34 28.7033 218.48 29.6354 219.895 30.3948C221.345 31.1197 222.95 31.4822 224.71 31.4822C225.78 31.4822 226.661 31.3269 227.351 31.0162C228.042 30.7055 228.387 30.2222 228.387 29.5663C228.387 29.1176 228.214 28.7379 227.869 28.4272C227.524 28.1165 226.833 27.8576 225.798 27.6505L222.173 26.9256C218.928 26.2697 216.615 25.3031 215.235 24.0259C213.888 22.7141 213.215 21.0054 213.215 18.8997C213.215 17.4844 213.647 16.1381 214.51 14.8608C215.373 13.5836 216.702 12.5307 218.497 11.7023C220.292 10.8738 222.587 10.4595 225.383 10.4595C230.734 10.4595 234.635 11.9439 237.086 14.9126L232.892 19.6764C232.063 18.6408 230.993 17.8296 229.681 17.2427C228.369 16.6559 227.058 16.3625 225.746 16.3625C223.226 16.3625 221.966 17.0011 221.966 18.2783C221.966 18.7271 222.173 19.1241 222.587 19.4693C223.036 19.8145 223.847 20.0906 225.021 20.2977L229.733 21.2298C232.391 21.7476 234.307 22.6451 235.481 23.9223C236.654 25.165 237.241 26.6839 237.241 28.479C237.241 30.9989 236.223 33.1219 234.186 34.8479C232.184 36.5394 229.146 37.3851 225.073 37.3851Z" fill="#4B3339"/>
<path d="M246.158 27.9612C247.78 27.9612 249.04 28.3754 249.938 29.2039C250.87 30.0324 251.336 31.1888 251.336 32.6731C251.336 34.123 250.87 35.2621 249.938 36.0906C249.04 36.9191 247.78 37.3333 246.158 37.3333C244.535 37.3333 243.258 36.9191 242.326 36.0906C241.429 35.2621 240.98 34.123 240.98 32.6731C240.98 31.1888 241.429 30.0324 242.326 29.2039C243.258 28.3754 244.535 27.9612 246.158 27.9612Z" fill="#4B3339"/>
</svg>
