<svg xmlns="http://www.w3.org/2000/svg" fill="none" viewBox="0 0 198 63"><defs/><path fill="currentcolor" style="fill: var(--logo-color, #F6925A)" d="M8.536 8.5l-.263 4.559c.126-.077.627-.128 1.505-.153.878-.051 1.455-.051 1.731 0l1.393.65c.35.23.765.627 1.241 1.188.301.664-.062 1.175-1.091 1.532-.978.154-1.605.23-1.881.23l-2.973.154v1.762c.15 3.14.226 4.966.226 5.477.125.766.188 1.226.188 1.38v.842c0 .485-.063.792-.188.92-.301.382-.49.587-.565.612-1.028.409-2.12.153-3.274-.766l-.602-.804c0-.103-.075-.486-.225-1.15.025-.076-.076-.497-.302-1.264 0-.153.026-.344.076-.574.075-.23.113-.485.113-.766s-.063-.575-.189-.881c0-.332-.025-.626-.075-.881v-.383c.05-.281.075-.575.075-.881.026-.332.063-.652.113-.958.076-.332.088-.638.038-.92v-.114c-.351-.179-.615-.256-.79-.23-.15.025-.326-.051-.527-.23-.176-.204-.276-.396-.301-.575-.025-.178.238-.536.79-1.072.05-.102.351-.28.903-.536v-.766l.188-2.145c-.075-.69-.075-1.213 0-1.571.076-.357.088-.651.038-.881l.226-.843c-1.255.23-2.158.281-2.71.154-.476-.23-.727-.6-.752-1.111-.025-.026.038-.396.188-1.111-.075-.358.226-.805.903-1.34a7.209 7.209 0 011.58-.537c.954-.332 1.807-.55 2.56-.651 1.48-.256 2.671-.473 3.574-.651l1.769-.652c.401-.23.677-.332.828-.306.175.025.426-.026.752-.153.05-.128.339-.243.866-.345 1.078-.204 1.706-.09 1.881.345.226.05.527.23.903.536.076.026.364.523.866 1.494.075.204.037.421-.113.651-.15.204-.389.32-.715.345l-1.016.383c-.301.025-.728.166-1.28.421-1.028.281-1.605.422-1.73.422-.126 0-.251.012-.377.038-.376.076-.777.179-1.204.306-.426.128-.79.192-1.091.192-.703.153-1.091.332-1.167.536a.542.542 0 00-.037.23l-.076.46V8.5zM25.619 16.66c-.025-.562-.15-.984-.376-1.264-.226-.307-.64-.486-1.242-.537-.176.128-.414.562-.715 1.303a8.525 8.525 0 00-.527 2.298 18.294 18.294 0 00-.376 3.677c.025 1.251.226 2.17.602 2.758.05.102.1.14.15.115.126 0 .326-.255.602-.766 1.33-2.452 1.957-4.98 1.882-7.584zm1.166 7.316l-.564 1.494c0 .05-.364.6-1.091 1.647-.226.485-.653.753-1.28.804a4.607 4.607 0 01-1.768-.191c-.778-.281-1.367-.613-1.769-.996-.401-.383-.803-1.022-1.204-1.916-.376-.919-.577-1.672-.602-2.26-.126-.842-.188-1.378-.188-1.608v-.92c0-.919.037-1.455.113-1.608l.188-.805a9.37 9.37 0 01.903-3.064c.928-1.864 1.881-2.822 2.86-2.873h.188c.05.026.125.038.226.038h.489c.878.077 1.417.153 1.618.23.376.102.702.153.978.153l.979.192c.3-.026.69.038 1.166.191.502.153.765.268.79.345.05.077.126.358.226.843s.163.842.188 1.072c.05.205.088.422.113.652.2 1.864.527 3.6.979 5.209.025.077.05.192.075.345.025.153.113.46.263.919.15.434.264.804.339 1.11.075.307.213.716.414 1.227.15.383.376.83.677 1.34.552.792.264 1.405-.865 1.839-.15.051-.414.076-.79.076-.076 0-.314-.127-.715-.383-.251 0-.49-.14-.715-.42l-.302-.078c-.175-.178-.326-.268-.451-.268-.05-.05-.502-1.085-1.355-3.102-.075.28-.113.536-.113.766zM34.825 16.353c0-.23-.025-.498-.075-.804v-.268c.025-.18.013-.37-.037-.575a2.9 2.9 0 01.075-.69c0-.51.063-.842.188-.995 0-.128.176-.422.527-.881.1-.103.288-.269.564-.498.402-.128.678-.205.828-.23.1-.102.44-.064 1.016.115.251.025.64.115 1.167.268.175.05.401.255.677.613-.05.102-.138.485-.264 1.149-.1.638-.137 1.162-.112 1.57.15-.127.414-.396.79-.804.376-.409.577-.626.602-.651a8.51 8.51 0 011.92-.651c.902-.077 1.492-.013 1.768.191.225.077.401.192.526.345.226.204.414.562.565 1.072.15.486.138.792-.038.92-.15.127-.652.23-1.505.306-.05 0-.226.102-.527.307l-1.956 1.57c-.402.204-.678.383-.828.536l-.715 1.341c-.025.051-.05.383-.075.996-.026.613-.026 1.06 0 1.34.025.256.025 1.111 0 2.567v1.647c0 .894-.013 1.405-.038 1.532-.025.154-.126.409-.301.767-.075.127-.314.191-.715.191-.978.74-1.606.702-1.882-.115l-.489-.306c-.2-.103-.326-.23-.376-.383-.2-.281-.301-.447-.301-.498l-.15-.537-.227-.46c-.075-.025-.137-.51-.188-1.455-.05-.97-.075-1.558-.075-1.762 0-.23-.025-.472-.075-.728.175-.178.25-.485.226-.919 0-.434-.025-.766-.076-.996-.05-.255-.05-.409 0-.46.05-.076.038-.434-.037-1.072-.075-.102-.088-.294-.038-.575l-.339-2.03zM56.87 15.817c0-.945-.137-1.417-.413-1.417a1.547 1.547 0 00-.49 0l-.489.306.038.038c-.176.18-.389.46-.64.843h.038c-.251.485-.44.817-.565.996-.25.332-.376.562-.376.69 0 .127-.05.319-.15.574-.076.255-.151.447-.226.575-.05.127-.15.497-.301 1.11-.15.588-.239 1.022-.264 1.303l-.15.46-.339 2.068c-.075.23-.075.638 0 1.226.1.587.2 1.021.301 1.302.276.485.552.74.828.766.176-.153.314-.242.414-.268.025.051.113.077.263.077.15 0 .264-.039.339-.115h-.038c.577-.639.991-1.15 1.242-1.532.251-.384.402-.984.452-1.8l.113-.882c.125-.383.188-.83.188-1.34l.188-2.72c.125-.639.15-1.15.075-1.532v-.192l-.037-.536zM50.36.917c.452.127.703.382.753.765.075.945.088 1.647.038 2.107v1.877c-.025.204.012 1.392.113 3.562.125 2.146.25 3.933.376 5.363l.113.038c.276-.663.452-1.06.527-1.187.1-.128.188-.294.263-.498.1-.204.276-.37.527-.498 0-.051.125-.204.376-.46.276-.28.464-.46.565-.536.125-.076.213-.128.263-.153.075-.051.176-.102.301-.153.15-.051.238-.09.264-.115.35-.102.564-.153.64-.153l.488-.154h.226c.126-.025.276.051.452.23.125.051.3.038.527-.038.451 0 .865.102 1.241.306.377.205.64.447.79.728.176.255.414.485.716.69.025.102.1.23.225.383.15.127.264.357.339.69.25 1.097.376 2.617.376 4.557-.05.026-.075.115-.075.268.025.154.025.383 0 .69v.69l-.15 1.034v.88c-.05.077-.088.333-.113.767l-.527 1.992-.527 1.532c0 .077-.125.332-.376.766-.352.102-.64.32-.866.651-.702.383-1.154.651-1.354.805a2.59 2.59 0 01-1.92.804c-.1 0-.451.051-1.053.153-.903.153-1.656.064-2.258-.268-.301 0-.502-.179-.602-.536-.502-.256-.778-.37-.828-.345-.15.051-.3.013-.452-.115a1.05 1.05 0 01-.263-.46c-.2-.05-.338-.217-.414-.498a2.772 2.772 0 00-.3-1.149 1.81 1.81 0 01-.227-.996 2.65 2.65 0 00-.075-1.072c-.075-.409-.088-.74-.038-.996a7.036 7.036 0 01-.263-1.34v-.116a8.7 8.7 0 01.075-.46v-.612c.05-.51.063-.843.038-.996-.075-.153-.113-.396-.113-.728a.262.262 0 01-.075-.191l-.038-.46c-.226-.23-.2-.575.076-1.034.1-.154.1-.588 0-1.303l-.49-2.643c.025 0 .038-.076.038-.23l.038-.42a14.746 14.746 0 01-.377-3.295c-.025-.077-.037-.217-.037-.421v-.652c-.05-.46-.05-.983 0-1.57.075-.587.087-1.2.037-1.839-.05-.766.038-1.417.264-1.953.05-.358.15-.613.3-.766.151-.18.402-.358.753-.537.577-.332 1.142-.46 1.694-.383zM70.993 13.595c-.05-.128-.225-.179-.526-.153-.276.025-.49.179-.64.46-1.029 1.66-1.58 3.434-1.656 5.324.853.204 1.58-.179 2.183-1.15.777-2.502.99-3.996.64-4.48zm-2.935 15.207l-.376-.076-.527-.537a.368.368 0 01-.338-.191c-.276-.332-.778-.996-1.506-1.992l-.564-2.107c0-.408-.075-.766-.226-1.072-.25-1.15-.401-1.8-.451-1.954-.05-.179-.088-.651-.113-1.417 0-.766.037-1.328.113-1.686.075-.485.539-1.685 1.392-3.6.226-.23.364-.537.414-.92l.602-.88c.552-.664 1.141-1.15 1.769-1.456 0-.051.426-.179 1.279-.383.175-.026.577.038 1.204.191 1.505.358 2.446.805 2.822 1.341l.113.191c.477.69.753 1.75.828 3.18a726.7 726.7 0 00-.188 1.609c-.05.434-.326 1.225-.828 2.375-.376.715-.74 1.29-1.091 1.723-.552.409-.928.613-1.13.613-.1.051-.313.077-.639.077h-.865c-.076-.026-.239-.039-.49-.039-.25 0-.614-.063-1.09-.191 0 .562.15 1.366.45 2.413.327 1.022.59 1.647.791 1.877.527.409.94.677 1.242.804.3.128.702.154 1.204.077.502-.102.865-.28 1.091-.536l.978-1.226c.628-.868 1.267-.945 1.92-.23.3.332.414.664.338.996-.05.307-.3.932-.752 1.877a7.658 7.658 0 01-1.204 1.532c-.778.409-1.242.613-1.393.613-.225.026-.577-.013-1.053-.115-.251.128-.678.115-1.28-.038 0-.051-.075-.09-.226-.115-.125 0-.3-.038-.526-.115l.075-.038h-.452l-1.053-.575h-.264zM93.642 16.43l-.188-.345c-.3 0-.865.626-1.693 1.877-.978 1.353-1.668 2.694-2.07 4.022-.276.792-.439 1.443-.489 1.953 0 .741.15 1.226.452 1.456.125 0 .263-.09.413-.268.176-.179.277-.306.302-.383.175-.102.4-.396.677-.881.326-.485.502-.74.527-.766l.338-.728.64-1.11c-.05 0 .025-.295.226-.882.3-.536.464-.945.489-1.226l.376-2.72zm-7.94 9.27c-.075-1.099-.062-1.941.038-2.529.577-2.145 1.029-3.779 1.355-4.903 0-.025.088-.344.263-.957.276-.894.527-1.481.753-1.762 0-.077.1-.281.3-.613 0-.23.277-.626.829-1.188l.414-.46c.451-.408 1.09-.612 1.919-.612.3-.051.652-.039 1.053.038.728.332 1.556.83 2.484 1.494l.376.23c.2.05.389.115.565.191.1 0 .313.052.64.154l.489.383c.225.153.363.37.413.65-.15.154-.225.652-.225 1.495-.1 1.098-.025 2.387.225 3.869.1 1.378.34 2.834.715 4.366 0 .128.088.473.264 1.035.2.561.288.919.263 1.072 0 .639-.59.958-1.768.958-1.154-.077-1.957-.588-2.409-1.533-.025-.102-.113-.306-.263-.612-.301-.307-.464-.562-.49-.767l-.075-.536a.491.491 0 01-.188-.306c-.3.434-.677.88-1.129 1.34l-.79 1.265-.3.306c-.026.102-.29.217-.791.345-.502.153-.866.178-1.091.076-.126 0-.301-.025-.527-.076l-1.656-.69c-.376-.102-.652-.28-.828-.536-.326-.204-.489-.32-.489-.345-.25-.434-.364-.715-.338-.843zM102.373 16.928l.414-1.954.038-.843c.05-.025.112-.191.188-.498.125-.944.639-1.417 1.543-1.417.476.026.99.166 1.542.421.201 0 .352.09.452.269a.586.586 0 01.339.23c.1.127.112.306.037.536a2.99 2.99 0 00-.15.536c0 .128-.063.575-.188 1.34-.352 1.916-.502 3.206-.452 3.87l2.032-3.142.753-1.378c.426-.23.815-.383 1.166-.46.176 0 .376.038.602.115.728.102 1.091.204 1.091.306l.452.307c.301.357.452.65.452.88.025.23 0 .46-.076.69-.05.204-.125.473-.226.805 0 .025-.263 1.48-.79 4.366l1.505-3.294.377-.498c0-.23.251-.715.752-1.455l.377-.69c0-.077.087-.204.263-.383.075 0 .151-.115.226-.345.326-.51.627-.83.903-.957.426-.154.953-.18 1.58-.077l.49.23c.1.204.175.32.225.345h.113c.301.28.414.6.339.957-.1.485-.151.805-.151.958l-.414 2.988c-.05.05-.075.127-.075.23-.05.05-.125.74-.226 2.068a69.29 69.29 0 00-.112 3.907l.037.46.188.65.264.614c.05.306-.025.562-.226.766a.816.816 0 01-.677.345c-1.706-.052-2.634-.6-2.785-1.648a.817.817 0 01-.113-.42c0-.154-.05-.384-.15-.69v-.422l.075-.574c-.075 0-.113-.409-.113-1.226 0-.843.025-1.328.075-1.456.101-.434.151-.893.151-1.379a9.112 9.112 0 01-.377.46c-.351.409-.577.715-.677.92l-.715 1.532c-.552 1.276-.966 2.094-1.242 2.451-.276.358-.727.524-1.354.498-.627-.025-1.016-.115-1.167-.268a6.926 6.926 0 00-.489-.23c-.1-.076-.138-.37-.113-.88v-.384l.489-3.141c.151-.562.226-.894.226-.996l.151-.92v-.727l-.377.536-.338.69a.523.523 0 00-.151.383c-.125.076-.226.217-.301.421l-1.467 3.026c-.427.894-.665 1.57-.715 2.03-.151.256-.339.55-.565.881-.201.332-.426.486-.677.46-.226-.051-.389-.115-.489-.191a.287.287 0 01-.113-.307c-.301.128-.54.026-.715-.306l-.903-1.188c-.101-.076-.151-.217-.151-.421.075-.307.075-.562 0-.766-.075-.204-.1-.37-.075-.498-.05-.23-.075-.55-.075-.958 0-.485-.038-.843-.113-1.072 0-.205.025-.409.075-.613v-.383c-.05-1.124.025-1.788.226-1.992-.151-.23-.138-.753.037-1.57l.038-.46zM138.417 28.687c-.176.179-.715.268-1.618.268-.627.128-1.367.026-2.22-.306l-.791-.268-1.166-.575h-.188c-.025.026-.088 0-.188-.076a1.8 1.8 0 00-.527-.307c-.502-.357-.853-.676-1.054-.957-.803-1.303-1.204-2.388-1.204-3.256 0-.102.125-.294.376-.575.502-.613 1.129-.92 1.882-.92.301.026.539.128.715.307l1.242 1.647c.2.205.426.409.677.613l.489.537.753.65c.1.052.2.077.301.077.1.051.376.115.828.192a8.461 8.461 0 001.279-.421c.226-.23.426-.41.602-.537l.527-.613c.05-.05.138-.255.263-.613v-.65c.025-.128-.012-.448-.113-.958-.025-.077-.2-.281-.526-.613a6.007 6.007 0 00-.64-.996c-.151-.153-.878-.562-2.183-1.226l-.715-.421-.677-.613c-.326-.102-.79-.447-1.392-1.034-.251-.18-.439-.32-.565-.422-.15-.05-.564-.485-1.241-1.302 0-.051-.214-.536-.64-1.456l-.339-1.494.151-.995c-.151-.665-.201-1.162-.151-1.494.1-.154.226-.46.376-.92-.075-.383.264-1.136 1.016-2.26 0-.153.552-.766 1.656-1.838l1.28-.69.602-.268c.225-.026.526-.064.903-.115.401-.051.991-.051 1.768 0 .778.051 1.267.153 1.468.307.175.076.677.42 1.505 1.034 1.104.996 1.706 1.89 1.806 2.681.427 1.303.452 2.694.076 4.175 0 .102-.352.307-1.054.613l-.941-.038c-.803-.102-1.568-.524-2.295-1.264-.201-.128-.351-.485-.452-1.073-.025-.613-.15-.983-.376-1.11-.025-.026-.126-.256-.301-.69-.427-.562-.715-.843-.866-.843-.125 0-.276.039-.451.115-.903.74-1.38 1.57-1.43 2.49-.176.74.05 1.647.677 2.72.276.408.452.613.527.613.151.255.439.574.866.957l.526.575 1.581 1.187.64.651.714.46c.402.179.791.421 1.167.728.502.383 1.116 1.098 1.844 2.145.15.23.351.92.602 2.068v1.494l-.188.881c-.126.128-.264.383-.414.766 0 .026-.138.37-.414 1.035-.075.127-.376.395-.903.804a7.868 7.868 0 01-2.521 1.379c-.201.051-.515.064-.941.038zM149.165 14.131l.038-.344c-.527-.051-.903-.09-1.129-.115-.2-.051-.539-.102-1.016-.153-.476-.052-.853-.128-1.129-.23-.527-.179-.828-.639-.903-1.38-.075-.765.163-1.238.715-1.417.502-.127.853-.191 1.054-.191.2 0 .577-.026 1.129-.077.276-.153.652-.242 1.129-.268l.564-.153c0 .026.1 0 .301-.077l.188-.804c0-.409.113-.817.339-1.226 0-.179.163-.676.489-1.494 0-.102.226-.842.677-2.221.101-.128.477-.422 1.129-.881.402-.205.966-.064 1.694.421.401.179.677.421.827.728-.15.153-.225.51-.225 1.072-.025.18-.201 1.124-.527 2.835v1.072c.201.026.527.09.978.192.477.102 1.041.217 1.694.345 1.254.255 2.044.766 2.37 1.532.126.562.101.957-.075 1.187-.176.23-.602.396-1.279.498-.552.026-1.28.039-2.183.039-.878 0-1.53.063-1.957.191-.05.46-.075.817-.075 1.073l-.038.574c0 .179-.112 1.124-.338 2.835-.151.23-.276 1.417-.377 3.562v2.796c0 .46.038.894.113 1.303.025.562.088.957.188 1.187 0 .23.063.715.189 1.456-.301.74-.803 1.11-1.506 1.11-.677 0-1.279-.255-1.806-.765l-.414-.613a2.334 2.334 0 00-.188-.422 3.745 3.745 0 01-.075-.268c-.176-.51-.314-.83-.414-.957-.151-.205-.226-.358-.226-.46v-.383a9.154 9.154 0 00-.188-1.111c-.125-.128-.188-.562-.188-1.302.05-1.354.05-2.133 0-2.337.075-.077.088-.562.038-1.455l.112-.843c0-.102.051-.485.151-1.15-.05-.102-.063-.37-.038-.804.025-.46.063-.779.113-.957.05-.307.075-.69.075-1.15zM167.289 15.396c.1-.384.088-.869-.038-1.456-.175-.153-.413-.23-.714-.23-.377 0-.715.358-1.016 1.073a7.032 7.032 0 00-.904 2.03h-.037c-.276 1.072-.414 1.647-.414 1.724.401.102.727.153.978.153.251-.026.54-.166.866-.422.577-.561 1.003-1.52 1.279-2.873zm-.113 5.515l-1.392.115c-.778 0-1.392-.076-1.844-.23l.113.728c.075 2.12.652 3.512 1.731 4.175.301.128.552.192.753.192.2 0 .464-.102.79-.306.1-.103.188-.243.263-.422.025-.23.151-.332.376-.306 1.029-1.328 1.807-1.852 2.333-1.57.527.357.791.638.791.842 0 .102-.063.217-.188.345v.23c0 .255-.164.715-.49 1.379a8.683 8.683 0 01-.978 1.685c-.176.383-.401.651-.677.804-.803.511-1.656.715-2.559.613-.201-.025-.339-.076-.414-.153-.201-.051-.351-.064-.452-.038l-.301-.039a.982.982 0 01-.564-.153c-.251-.153-.427-.23-.527-.23-.652-.255-1.054-.447-1.204-.574a1.384 1.384 0 00-.339-.268c-.1-.051-.338-.32-.715-.805-.326-.28-.514-.46-.564-.536a2.242 2.242 0 00-.414-.498c-.1-.102-.163-.332-.188-.69a.778.778 0 01-.151-.497l-.15-.307a.484.484 0 00-.226-.421.785.785 0 01-.226-.575v-.306c-.1-.051-.125-.204-.075-.46v-.996l-.038-.345v-.268c-.025-.102 0-.319.076-.65l-.038-.346c.025-.025.063-.23.113-.613.1-.536.213-.868.338-.995v-.345a.983.983 0 00.038-.307c0-.127.025-.268.075-.421.076-.153.276-.728.602-1.724l.603-1.34c.175-.383.451-.805.827-1.264.025-.128.126-.358.301-.69l.49-.46c.15-.23.376-.395.677-.498.351-.178.615-.268.79-.268l1.054-.153c.125.026.213.038.263.038h.489c.552.051 1.004.166 1.355.345.753.23 1.305.524 1.656.881.777.894 1.166 1.75 1.166 2.567 0 .817-.125 1.519-.376 2.106-.627 1.456-1.079 2.375-1.355 2.758-.451.843-.991 1.264-1.618 1.264zM176.09 2.87c.025-.026.263-.064.715-.115.728-.128 1.229-.077 1.505.153.301.204.514.434.64.69.05.817-.063 1.877-.339 3.179-.276.843-.514 1.468-.715 1.877l-.376.574c-.075.205-.238.422-.489.652-.251.23-.439.344-.565.344-.1-.025-.288-.115-.564-.268-.251-.179-.401-.306-.452-.383a3.742 3.742 0 01-.075-.268l-.188-.766-.753-.958a2.075 2.075 0 01-.225-.919c-.076-.715.012-1.264.263-1.647 0-.051.038-.179.113-.383.125-.562.627-1.15 1.505-1.762zm-1.129 17.199c0-.23.038-.537.113-.92.1-.408.125-.69.075-.842-.025-.153-.025-.588 0-1.303a2.79 2.79 0 00.038-1.034c-.176-.562-.226-.97-.151-1.226.076-.255.239-.536.49-.842.25-.332.526-.562.827-.69.301-.128.753-.115 1.355.038.151.077.401.332.753.767.075.076.163.37.263.88a8.49 8.49 0 01.226 1.686c.05.587.088 1.456.113 2.605.025 1.123.075 2.643.15 4.558.076 1.89.088 3.064.038 3.524-.025.46-.188.804-.489 1.034-.276.256-.527.307-.753.154a2.014 2.014 0 00-.64-.269c-.401 0-.752-.166-1.053-.498-.101-.025-.339-.14-.715-.344-.376-.23-.615-.639-.715-1.226-.126-.255-.163-1.085-.113-2.49v-1.379l.188-1.302v-.881zM182.922 23.86c0-.101.025-.484.075-1.148-.2-.307-.301-.996-.301-2.069l-.037-4.175c.025-.051 0-.14-.076-.268a1.037 1.037 0 01-.112-.46v-.421c-.101-.843-.051-1.481.15-1.915a.81.81 0 01.414-.575c.176-.255.427-.383.753-.383s.602.038.827.115c.176-.077.339.025.49.306.301.128.464.192.489.192l.188.153c.201 0 .326.038.376.115.076.051.126.204.151.46l.339 3.332v.651c.05.307.075.55.075.728l.037 1.8.151.039c.15-.613.313-1.124.489-1.532.201-.434.326-.754.376-.958.025-.204.113-.396.264-.575.15-.306.226-.523.226-.65 0-.128.1-.294.301-.499.225-.562.439-.97.639-1.226l.113-.306c.101-.153.176-.28.226-.383.276-.23.477-.434.602-.613l.301-.23c.05 0 .1-.063.151-.191.05-.153.376-.243.978-.268.477-.077.878-.077 1.204 0 .226 0 .364.012.414.038l.226.23.301.076c.426.23.702.78.828 1.648 0 1.736.062 2.885.188 3.447.175 1.456.464 2.758.865 3.907.427 1.15.841 1.915 1.242 2.298.527.69.627 1.418.301 2.184-.226.383-.514.587-.865.613-.352.025-.602.012-.753-.039a.926.926 0 01-.489-.115.683.683 0 01-.715-.191c-.226 0-.401-.115-.527-.345-.878-1.175-1.392-1.902-1.543-2.183-.125-.281-.225-.473-.301-.575a2.136 2.136 0 01-.113-.268l-.113-.345c-.05-.23-.15-.434-.301-.613-.125-.204-.188-.357-.188-.46-.075-.127-.125-.331-.15-.612-.151-.102-.226-.23-.226-.383-.125-.077-.213-.307-.263-.69l-.151-.996-.075-.038a10.144 10.144 0 00-2.145 5.478c-.05.51-.1.842-.151.996-.125.204-.075.523.151.957v.23c0 .102-.138.294-.414.575a11.21 11.21 0 01-.527.038h-.414c-.05 0-.15.038-.301.115a.824.824 0 00-.376.076c-.1.052-.238.039-.414-.038-.452-.025-.715-.064-.79-.115a121.97 121.97 0 00-.339-.115.593.593 0 01-.376-.23c-.126 0-.213-.076-.264-.23-.652-.663-.978-1.225-.978-1.685v-.268l-.038-.306a2.659 2.659 0 00-.075-1.111zM43.87 56.233h-2.422V45.26h2.422c.776 0 1.374.228 1.793.682.431.443.647 1.112.647 2.01v5.59c0 .897-.216 1.573-.647 2.028-.419.442-1.017.663-1.793.663zM54.211 56.347c-1.614 0-2.421-.897-2.421-2.691V47.95c0-1.794.807-2.69 2.421-2.69.777 0 1.375.227 1.794.681.431.443.647 1.112.647 2.01v5.704c0 .897-.216 1.572-.647 2.027-.42.443-1.017.664-1.794.664zM62.246 50.206h2.384c1.701 0 2.552-.827 2.552-2.482 0-1.643-.85-2.464-2.552-2.464h-2.384v4.946zM153.687 50.206h-2.385V45.26h2.385c1.701 0 2.551.821 2.551 2.464 0 1.655-.85 2.482-2.551 2.482z"/><path fill="#F6925A" fill-rule="evenodd" d="M37.397 38.729c-1.362 0-2.465 1.131-2.465 2.527v19.217c0 1.396 1.103 2.527 2.465 2.527h122.849c1.362 0 2.465-1.131 2.465-2.527V41.256c0-1.396-1.103-2.527-2.465-2.527H37.396zm36.801 16.954c0-.202.068-.398.204-.587.147-.19.308-.284.48-.284.111 0 .253.082.425.246.173.152.352.328.536.53.185.19.475.367.87.531.394.152.837.228 1.33.228.801 0 1.43-.196 1.886-.588.456-.404.684-.992.684-1.762 0-.695-.21-1.257-.629-1.687a4.068 4.068 0 00-1.515-1.004 65.877 65.877 0 01-1.794-.72 3.995 3.995 0 01-1.516-1.194c-.419-.544-.628-1.239-.628-2.085 0-.657.123-1.226.37-1.706.246-.492.573-.859.98-1.099.418-.253.85-.436 1.293-.55.444-.113.919-.17 1.424-.17.764 0 1.491.114 2.181.341.703.215 1.054.518 1.054.91 0 .177-.062.366-.185.568-.123.202-.283.303-.48.303-.05 0-.333-.12-.85-.36a4.038 4.038 0 00-1.72-.36c-.752 0-1.362.158-1.83.474-.456.316-.684.815-.684 1.497 0 .581.21 1.055.628 1.422.42.353.925.638 1.516.852.604.215 1.202.462 1.793.74.592.278 1.097.726 1.516 1.345.42.606.629 1.383.629 2.331 0 1.314-.37 2.306-1.11 2.975-.739.67-1.719 1.005-2.939 1.005-1.097 0-2.027-.24-2.791-.72-.752-.48-1.128-.954-1.128-1.422zM39.895 44.37v12.754c0 .151.062.284.185.398a.843.843 0 00.518.151h3.272c1.208 0 2.175-.328 2.902-.985.727-.67 1.091-1.719 1.091-3.146v-5.59c0-1.428-.364-2.47-1.09-3.128-.728-.67-1.695-1.004-2.903-1.004h-3.272a.778.778 0 00-.518.17.47.47 0 00-.185.38zm10.342 3.581v5.705c0 1.427.357 2.476 1.072 3.145.727.657 1.695.986 2.902.986 1.208 0 2.176-.328 2.903-.986.727-.67 1.09-1.718 1.09-3.145V47.95c0-1.427-.363-2.47-1.09-3.127-.727-.67-1.695-1.004-2.903-1.004-1.207 0-2.175.335-2.902 1.004-.715.657-1.072 1.7-1.072 3.127zm10.456 9.154V44.37c0-.152.049-.278.148-.38a.663.663 0 01.406-.17h3.383c1.233 0 2.225.297 2.977.89.751.582 1.127 1.548 1.127 2.9 0 2.085-.918 3.317-2.754 3.696l2.736 5.325c.05.088.074.177.074.265 0 .202-.099.392-.296.569a.967.967 0 01-.629.246c-.258 0-.492-.208-.702-.625l-2.791-5.553h-2.126v5.572a.47.47 0 01-.24.417.927.927 0 01-.537.151c-.21 0-.394-.05-.555-.151a.478.478 0 01-.221-.417zM70.73 44.37v12.735c0 .177.074.316.222.417.16.1.345.151.555.151.21 0 .388-.05.536-.151a.47.47 0 00.24-.417V44.37c0-.177-.08-.31-.24-.398a.927.927 0 00-.536-.152c-.21 0-.395.05-.555.151a.434.434 0 00-.222.399zm16.652 10.726a.998.998 0 00-.204.587c0 .468.376.942 1.128 1.422.764.48 1.695.72 2.791.72 1.22 0 2.2-.335 2.94-1.005.74-.67 1.11-1.661 1.11-2.975 0-.947-.21-1.724-.63-2.33-.418-.62-.924-1.069-1.515-1.346a19.895 19.895 0 00-1.794-.74 4.932 4.932 0 01-1.515-.852c-.42-.367-.629-.84-.629-1.422 0-.682.228-1.181.684-1.497.468-.316 1.078-.474 1.83-.474.629 0 1.202.12 1.72.36.517.24.8.36.85.36.197 0 .357-.1.48-.303.124-.202.185-.391.185-.568 0-.392-.35-.695-1.053-.91a6.926 6.926 0 00-2.182-.341c-.505 0-.98.057-1.423.17a4.815 4.815 0 00-1.294.55c-.407.24-.734.607-.98 1.1-.247.48-.37 1.048-.37 1.705 0 .846.21 1.541.629 2.084.419.531.924.93 1.516 1.195.603.252 1.201.492 1.793.72a4.07 4.07 0 011.516 1.004c.419.43.628.992.628 1.687 0 .77-.228 1.358-.684 1.762-.456.392-1.084.588-1.885.588-.493 0-.937-.076-1.331-.228-.395-.164-.684-.34-.87-.53a6.972 6.972 0 00-.535-.531c-.173-.164-.315-.246-.426-.246-.172 0-.332.094-.48.284zm9.778 2.009V44.388c0-.176.068-.315.204-.416a.864.864 0 01.499-.152h6.581c.172 0 .302.07.388.208a.827.827 0 01.148.493.948.948 0 01-.148.53.454.454 0 01-.388.21h-5.73v4.813h2.883c.16 0 .29.07.388.208a.744.744 0 01.148.474.767.767 0 01-.148.455c-.086.126-.215.19-.388.19h-2.884v4.832h5.731c.16 0 .29.076.388.227.099.14.148.31.148.512 0 .19-.049.354-.148.493a.427.427 0 01-.388.208h-6.581a.864.864 0 01-.5-.151.491.491 0 01-.203-.417zm9.496-12.508v12.508c0 .177.074.316.222.417.16.1.345.151.555.151.209 0 .388-.05.536-.151a.47.47 0 00.24-.417V47.08l2.773 5.457c.148.291.339.436.573.436.259 0 .462-.145.61-.436l2.792-5.382v9.95c0 .177.074.316.222.417.16.1.345.151.554.151.21 0 .388-.05.536-.151a.47.47 0 00.241-.417V44.597c0-.518-.259-.777-.777-.777-.468 0-.881.335-1.238 1.004l-2.921 5.705-2.903-5.705c-.333-.67-.745-1.004-1.238-1.004-.518 0-.777.259-.777.777zm12.475 12.508V44.597c0-.518.259-.777.776-.777.493 0 .906.335 1.239 1.004l2.902 5.705 2.921-5.705c.358-.67.771-1.004 1.239-1.004.518 0 .776.259.776.777v12.508a.47.47 0 01-.24.417.928.928 0 01-.536.151c-.21 0-.394-.05-.555-.151a.478.478 0 01-.222-.417v-9.95l-2.791 5.382c-.148.291-.351.436-.61.436-.234 0-.425-.145-.573-.436l-2.773-5.457v10.025a.47.47 0 01-.24.417.929.929 0 01-.537.151c-.209 0-.394-.05-.554-.151a.478.478 0 01-.222-.417zm12.475-12.735v12.735c0 .177.068.316.203.417a.864.864 0 00.499.151h5.897a.41.41 0 00.37-.208 1.02 1.02 0 00.13-.512.918.918 0 00-.13-.493c-.086-.151-.209-.227-.37-.227h-5.046V44.37c0-.177-.08-.31-.241-.398a.926.926 0 00-.536-.152c-.209 0-.394.05-.554.151a.434.434 0 00-.222.399zm8.647 12.735V44.388a.49.49 0 01.204-.416.864.864 0 01.499-.152h6.581c.173 0 .302.07.388.208a.827.827 0 01.148.493.948.948 0 01-.148.53.454.454 0 01-.388.21h-5.731v4.813h2.884c.16 0 .29.07.388.208a.744.744 0 01.148.474.767.767 0 01-.148.455c-.086.126-.215.19-.388.19h-2.884v4.832h5.731c.16 0 .29.076.388.227.099.14.148.31.148.512 0 .19-.049.354-.148.493a.426.426 0 01-.388.208h-6.581a.864.864 0 01-.499-.151.49.49 0 01-.204-.417zm9.496-12.735v12.735c0 .177.074.316.222.417.16.1.345.151.555.151.209 0 .388-.05.536-.151a.47.47 0 00.24-.417v-5.572h2.126l2.792 5.553c.209.417.443.625.702.625a.97.97 0 00.629-.246c.197-.177.295-.367.295-.569a.534.534 0 00-.074-.265l-2.736-5.325c1.837-.38 2.755-1.611 2.755-3.696 0-1.352-.376-2.318-1.128-2.9-.752-.593-1.744-.89-2.976-.89h-3.383a.665.665 0 00-.407.17.524.524 0 00-.148.38z" clip-rule="evenodd"/></svg>