<svg width="132" height="130" viewBox="0 0 132 130" fill="none" xmlns="http://www.w3.org/2000/svg">
<path d="M77.6579 53.5294H52.4386M77.6579 53.5294L128.096 103.529H77.6579M77.6579 53.5294V3.52942L52.4386 28.5294V53.5294M77.6579 53.5294V103.529M52.4386 53.5294V78.5294M52.4386 53.5294L27.2193 78.5294V53.5294M52.4386 78.5294V103.529M52.4386 78.5294L27.2193 103.529M52.4386 103.529H27.2193M52.4386 103.529H77.6579M27.2193 103.529L2.00001 78.5294M27.2193 103.529V128.529M77.6579 103.529V128.529M77.6579 103.529L102.877 128.529H77.6579M2.00001 78.5294V103.529V128.529H27.2193M2.00001 78.5294V53.5294M27.2193 53.5294H2.00001M27.2193 53.5294V28.5294L2.00001 53.5294M77.6579 128.529H27.2193M98.4912 117.016C98.4912 123.375 103.646 128.529 110.004 128.529C116.363 128.529 121.518 123.375 121.518 117.016C121.518 110.658 116.363 105.503 110.004 105.503C103.646 105.503 98.4912 110.658 98.4912 117.016ZM29.4123 47.9373C29.4123 54.2959 34.5669 59.4505 40.9254 59.4505C47.284 59.4505 52.4386 54.2959 52.4386 47.9373C52.4386 41.5788 47.284 36.4242 40.9254 36.4242C34.5669 36.4242 29.4123 41.5788 29.4123 47.9373Z" stroke="#4B3339" stroke-width="2.5"/>
</svg>
