<svg width="93" height="138" viewBox="0 0 93 138" fill="none" xmlns="http://www.w3.org/2000/svg">
<path d="M46.4444 1.33337H90.8889V45.7778M46.4444 1.33337L68.6667 23.5556V45.7778M46.4444 1.33337L24.0001 23.5556H46.4444M46.4444 1.33337V23.5556M68.6667 45.7778H90.8889M68.6667 45.7778H46.4444M90.8889 45.7778L68.6667 67.8334H46.4444V45.7778M46.4444 23.5556V45.7778M46.4444 23.5556L24.2222 45.7778H46.4444M24.2222 23.5556V1.33337H2V23.5556H24.2222ZM68.6667 68H24.2222V90.2223H68.6667V68ZM46.4444 90.2223V112.444H68.6667L90.8889 134.667V90.2223H46.4444ZM90.8889 79.1111C90.8889 85.2476 85.9143 90.2223 79.7778 90.2223C73.6413 90.2223 68.6667 85.2476 68.6667 79.1111C68.6667 72.9746 73.6413 68 79.7778 68C85.9143 68 90.8889 72.9746 90.8889 79.1111ZM46.4444 56.8889C46.4444 63.0254 41.4698 68 35.3333 68C29.1968 68 24.2222 63.0254 24.2222 56.8889C24.2222 50.7524 29.1968 45.7778 35.3333 45.7778C41.4698 45.7778 46.4444 50.7524 46.4444 56.8889ZM68.6667 34.6667C68.6667 40.8032 63.6921 45.7778 57.5556 45.7778C51.4191 45.7778 46.4444 40.8032 46.4444 34.6667C46.4444 28.5302 51.4191 23.5556 57.5556 23.5556C63.6921 23.5556 68.6667 28.5302 68.6667 34.6667ZM91.1111 61.8889C91.1111 64.9572 88.6238 67.4445 85.5556 67.4445C82.4873 67.4445 80 64.9572 80 61.8889C80 58.8207 82.4873 56.3334 85.5556 56.3334C88.6238 56.3334 91.1111 58.8207 91.1111 61.8889ZM35.3333 29.1112C35.3333 32.1794 32.846 34.6667 29.7778 34.6667C26.7095 34.6667 24.2222 32.1794 24.2222 29.1112C24.2222 26.0429 26.7095 23.5556 29.7778 23.5556C32.846 23.5556 35.3333 26.0429 35.3333 29.1112Z" stroke="#4B3339" stroke-width="2.5"/>
</svg>
