<svg width="513" height="513" viewBox="0 0 513 513" fill="none" xmlns="http://www.w3.org/2000/svg">
<g clip-path="url(#clip0)">
<g filter="url(#filter0_d)">
<path d="M54.72 92.34C54.72 71.5631 71.563 54.72 92.34 54.72H458.28V420.66C458.28 441.437 441.437 458.28 420.66 458.28H54.72V92.34Z" fill="#F7ABBE"/>
<path d="M458.28 54.72H92.34C71.563 54.72 54.72 71.5631 54.72 92.34V458.28M458.28 54.72V420.66C458.28 441.437 441.437 458.28 420.66 458.28H54.72M458.28 54.72C458.28 54.72 54.72 54.72 256.5 256.5C458.28 458.28 54.72 458.28 54.72 458.28" stroke="#4B3339" stroke-width="34.2" stroke-linecap="round" stroke-linejoin="round"/>
</g>
</g>
<defs>
<filter id="filter0_d" x="3.42" y="10.26" width="506.16" height="506.16" filterUnits="userSpaceOnUse" color-interpolation-filters="sRGB">
<feFlood flood-opacity="0" result="BackgroundImageFix"/>
<feColorMatrix in="SourceAlpha" type="matrix" values="0 0 0 0 0 0 0 0 0 0 0 0 0 0 0 0 0 0 127 0"/>
<feOffset dy="6.84"/>
<feGaussianBlur stdDeviation="17.1"/>
<feColorMatrix type="matrix" values="0 0 0 0 0 0 0 0 0 0 0 0 0 0 0 0 0 0 0.25 0"/>
<feBlend mode="normal" in2="BackgroundImageFix" result="effect1_dropShadow"/>
<feBlend mode="normal" in="SourceGraphic" in2="effect1_dropShadow" result="shape"/>
</filter>
<clipPath id="clip0">
<rect width="513" height="513" fill="white"/>
</clipPath>
</defs>
</svg>
