<svg width="217" height="37" viewBox="0 0 217 37" fill="none" xmlns="http://www.w3.org/2000/svg">
<path fill-rule="evenodd" clip-rule="evenodd" d="M53.8576 8.83463C53.8576 14.5504 59.9732 15.792 64.5445 16.488C69.0174 17.184 69.9119 17.7793 69.9119 19.2212C69.9119 20.7122 67.9245 21.5089 65.2909 21.5089C63.3515 21.5089 60.7178 20.7122 59.8215 18.5251H53.1633C53.9577 24.0424 58.779 27.4729 65.2909 27.4729C71.8513 27.4729 76.5221 23.8926 76.5221 18.8243C76.5221 13.2578 71.9515 11.8645 65.5894 10.822C62.4066 10.3238 60.5175 9.87716 60.5175 8.53485C60.5175 7.59244 61.7609 6.49711 64.7921 6.49711C67.2285 6.49711 68.6691 7.44195 69.0672 8.63498H75.8777C75.033 3.81309 70.6583 0.632683 64.7921 0.632683C57.3863 0.632683 53.8576 4.80708 53.8576 8.83463ZM28.3609 9.13137H34.9214C35.5191 6.94556 38.2031 5.90059 40.5388 5.90059C43.4692 5.90059 45.2096 6.9935 45.2096 8.3352C45.2096 10.4239 42.1779 10.9221 37.9052 11.3184C32.2373 11.8154 27.4167 13.3076 27.4167 19.0725C27.4167 24.639 32.3878 27.3727 37.8075 27.3727C41.3853 27.3727 43.9692 26.2792 45.658 24.4909C45.8043 25.4339 46.0064 26.2301 46.3049 26.8745H52.318C51.9721 25.8818 51.5722 23.9429 51.5722 22.7007V9.37895C51.5722 7.34364 50.7755 0.632683 40.3889 0.632683C33.6804 0.632683 29.0078 4.26154 28.3609 9.13137ZM34.0269 19.121C34.0269 17.2344 36.0155 16.5378 39.2481 16.1894C41.9303 15.8915 44.0669 15.4442 45.4596 14.5504V16.9364C45.4596 20.2139 42.278 21.5575 38.3518 21.5575C35.7175 21.5575 34.0269 20.5629 34.0269 19.121ZM0 14.1019C0 21.5089 5.91601 27.4729 13.1221 27.4729C19.4842 27.4729 24.0075 23.9429 25.4985 18.7254H18.4896C17.3973 20.7625 15.2576 21.7074 13.0724 21.7074C9.99088 21.7074 7.50651 19.7691 6.65998 16.6361H25.9943C26.9391 6.49711 20.6772 0.632683 13.1221 0.632683C5.91601 0.632683 0 6.69554 0 14.1019ZM13.0724 6.39941C16.2024 6.39941 18.6898 8.28605 19.4842 11.2705H6.76011C7.70313 8.28605 10.0886 6.39941 13.0724 6.39941ZM94.6531 1.27835L88.541 19.7691L82.2773 1.27835H75.3218L85.2089 27.323C84.116 30.2546 82.5771 31.0507 79.296 30.8511V36.815C84.6628 37.1652 88.5878 36.2677 91.0752 29.6083L101.662 1.27835H94.6531Z" fill="currentcolor" style="fill: var(--logo-color, #ffffff)" />
<path fill-rule="evenodd" clip-rule="evenodd" d="M197.451 11.2567C198.394 8.27104 200.785 6.37954 203.771 6.37954C206.905 6.37954 209.396 8.27104 210.189 11.2567H197.451ZM216.709 16.6308C217.653 6.47967 211.385 0.60614 203.821 0.60614C196.605 0.60614 190.683 6.6781 190.683 14.0942C190.683 21.5067 196.605 27.4803 203.821 27.4803C210.189 27.4803 214.722 23.9479 216.213 18.7213H209.194C208.099 20.7602 205.96 21.7105 203.771 21.7105C200.685 21.7105 198.196 19.7675 197.351 16.6308H216.709ZM188.702 11.9047C188.702 5.18529 184.718 0.60614 177.851 0.60614C174.568 0.60614 171.88 1.99943 170.037 4.24167C168.247 1.95209 165.56 0.60614 162.374 0.60614C159.589 0.60614 157.347 1.79917 155.758 3.74225V1.25484H149.434V26.8838H156.053V11.9047C156.053 9.01926 158.093 6.8292 160.981 6.8292C165.312 6.8292 165.758 10.4113 165.758 11.9047V26.8838H172.38V11.9047C172.38 9.01926 174.417 6.8292 177.353 6.8292C181.634 6.8292 182.134 10.4113 182.134 11.9047V26.8838H188.702V11.9047ZM140.569 16.9317C140.569 20.2159 137.382 21.5576 133.449 21.5576C130.814 21.5576 129.121 20.5642 129.121 19.1194C129.121 17.2303 131.112 16.5318 134.348 16.1835C137.033 15.8856 139.175 15.4371 140.569 14.5426V16.9317ZM141.414 26.8838H147.434C147.087 25.8892 146.689 23.9479 146.689 22.7033V9.36576C146.689 7.3262 145.895 0.60614 135.492 0.60614C128.772 0.60614 124.094 4.24167 123.447 9.11757H130.017C130.615 6.92872 133.303 5.88255 135.642 5.88255C138.578 5.88255 140.317 6.97727 140.317 8.31898C140.317 10.4113 137.283 10.9083 133.003 11.3064C127.329 11.8028 122.503 13.2956 122.503 19.069C122.503 24.6434 127.48 27.3802 132.903 27.3802C136.489 27.3802 139.075 26.2873 140.766 24.4935C140.916 25.4413 141.114 26.2363 141.414 26.8838ZM121.01 11.9047C121.01 5.13493 117.03 0.60614 111.006 0.60614C108.272 0.60614 106.031 1.79917 104.39 3.74225L98.1165 20.4908V26.8838H104.686V11.9047C104.686 9.01926 106.727 6.8292 109.663 6.8292C113.995 6.8292 114.44 10.4113 114.44 11.9047V26.8838H121.01V11.9047Z" fill="currentcolor" style="fill: var(--logo-color, #ffffff)" />
</svg>
