<svg width="110" height="132" viewBox="0 0 110 132" fill="none" xmlns="http://www.w3.org/2000/svg">
<path d="M80.5 28.5294H55M80.5 28.5294L106 53.5294H80.5M80.5 28.5294V53.5294M80.5 28.5294V3.52942L106 28.5294H80.5ZM55 28.5294H29.5M55 28.5294V3.52942H29.5V28.5294M29.5 28.5294V53.5294M29.5 53.5294L4 78.5294H29.5M29.5 53.5294L55 78.5294M29.5 78.5294L42.25 103.529M29.5 78.5294H55M42.25 103.529L55 128.529L67.75 103.529M42.25 103.529L55 78.5294M42.25 103.529H67.75M55 78.5294H80.5M80.5 78.5294L67.75 103.529M80.5 78.5294V53.5294M106 66.0294C106 72.5015 100.731 77.7482 94.2308 77.7482C87.7308 77.7482 82.4615 72.5015 82.4615 66.0294C82.4615 59.5573 87.7308 54.3107 94.2308 54.3107C100.731 54.3107 106 59.5573 106 66.0294Z" stroke="#4B3339" stroke-width="2.5"/>
</svg>
