<svg width="143" height="131" viewBox="0 0 143 131" fill="none" xmlns="http://www.w3.org/2000/svg">
<path d="M26.4767 51.5419V26.3152L51.7034 51.5419M26.4767 51.5419V76.7686M26.4767 51.5419L1.25 76.7686V101.995M26.4767 76.7686H51.7034M26.4767 76.7686L1.25 101.995M51.7034 76.7686V51.5419M51.7034 76.7686H76.9301M51.7034 76.7686L26.4767 101.995M51.7034 76.7686V101.995M51.7034 51.5419H76.9301M51.7034 51.5419V1.08844L76.9301 51.5419M1.25 101.995H26.4767M1.25 101.995L26.4767 127.222V101.995M76.9301 51.5419V76.7686M76.9301 76.7686H102.157L76.9301 101.995M26.4767 101.995H51.7034M51.7034 101.995H76.9301M76.9301 101.995V127.222H102.157L76.9301 101.995ZM102.157 64.1552C102.157 71.1214 96.5097 76.7686 89.5435 76.7686C82.5773 76.7686 76.9301 71.1214 76.9301 64.1552C76.9301 57.189 82.5773 51.5419 89.5435 51.5419C96.5097 51.5419 102.157 57.189 102.157 64.1552ZM140.811 101.499C140.811 115.432 129.516 126.726 115.584 126.726C101.652 126.726 90.3573 115.432 90.3573 101.499C90.3573 87.567 101.652 76.2727 115.584 76.2727C129.516 76.2727 140.811 87.567 140.811 101.499Z" stroke="#4B3339" stroke-width="2.5"/>
</svg>
