<svg width="272" height="136" viewBox="0 0 272 136" fill="none" xmlns="http://www.w3.org/2000/svg">
<path fill-rule="evenodd" clip-rule="evenodd" d="M141.231 0.031723L105.942 36.5871V36.6153H105.923V95.705C104.05 88.7206 97.675 83.5785 90.0995 83.5785C81.0521 83.5785 73.7177 90.9128 73.7177 99.9602C73.7177 100.057 73.7186 100.154 73.7203 100.25L58.7071 85.2373L42.0049 101.94V102H41.8462V102.18L16.9911 127.892C16.997 127.762 17 127.631 17 127.5C17 122.806 13.1944 119 8.5 119C3.80558 119 0 122.806 0 127.5C0 132.194 3.80558 136 8.5 136C8.72882 136 8.95552 135.991 9.17978 135.973L9.15384 136H272L272 102H239.308L239.308 68L239.308 67.985L204 32.115L204 108.157C202.083 105.985 199.278 104.615 196.154 104.615C190.376 104.615 185.692 109.299 185.692 115.077C185.692 115.347 185.703 115.616 185.723 115.881L173.923 104.519V70.6153H165.695C171.027 67.5179 174.612 61.745 174.612 55.1346C174.612 45.254 166.602 37.2441 156.721 37.2441C150.104 37.2441 144.326 40.8368 141.231 46.178V0.031723ZM105.805 104.632C105.846 104.494 105.886 104.355 105.923 104.215V104.519L105.805 104.632ZM90.0995 116.342C91.5067 116.342 92.8725 116.164 94.1758 115.831L75.8462 133.481V108.041C78.6626 112.998 83.9905 116.342 90.0995 116.342ZM191.24 121.194L190.227 120.219C189.032 118.842 188.308 117.044 188.308 115.077C188.308 110.744 191.821 107.231 196.154 107.231C200.487 107.231 204 110.744 204 115.077C204 119.41 200.487 122.923 196.154 122.923C194.294 122.923 192.585 122.276 191.24 121.194ZM188.335 122.028C188.695 122.432 189.086 122.809 189.505 123.154L200.129 133.385L173.923 133.385V108.149L188.335 122.028ZM195.743 125.53C195.879 125.536 196.016 125.538 196.154 125.538C199.278 125.538 202.083 124.169 204 121.997V133.481L195.743 125.53ZM206.615 133.385H236.692V70.6154H206.615V133.385ZM141.231 64.0913C142.796 66.7928 145.048 69.047 147.748 70.6153H141.231V64.0913ZM171.308 104.615H108.538V133.385H171.308V104.615ZM44.4615 104.615H73.2308V133.385H44.4615V104.615ZM15.3196 133.385L41.8462 105.943V133.385H15.3196ZM105.923 108.149L79.7173 133.385L105.923 133.385L105.923 108.149ZM141.231 73.2307L141.231 102L171.308 102V73.2307H141.231ZM138.615 39.2307H108.538L108.538 102H138.615V39.2307ZM138.615 36.6154V6.5067L109.55 36.6153L138.615 36.6154ZM239.308 133.385L239.308 104.615H269.385V133.385H239.308ZM235.653 68H206.615L206.615 38.5003L235.653 68ZM58.7071 88.936L71.7711 102H45.6431L58.7071 88.936ZM156.721 70.4098C165.158 70.4098 171.997 63.5709 171.997 55.1346C171.997 46.6984 165.158 39.8595 156.721 39.8595C148.285 39.8595 141.446 46.6984 141.446 55.1346C141.446 63.5709 148.285 70.4098 156.721 70.4098ZM90.0995 113.727C97.7024 113.727 103.866 107.563 103.866 99.9602C103.866 92.3573 97.7024 86.1939 90.0995 86.1939C82.4965 86.1939 76.3331 92.3573 76.3331 99.9602C76.3331 107.563 82.4965 113.727 90.0995 113.727ZM14.3846 127.5C14.3846 130.75 11.75 133.385 8.5 133.385C5.25002 133.385 2.61538 130.75 2.61538 127.5C2.61538 124.25 5.25002 121.615 8.5 121.615C11.75 121.615 14.3846 124.25 14.3846 127.5Z" fill="#4B3339"/>
</svg>
