<svg width="104" height="158" viewBox="0 0 104 158" fill="none" xmlns="http://www.w3.org/2000/svg">
<path d="M77.5011 53.5157V28.2668M77.5011 53.5157L52.2521 53.5157M77.5011 53.5157L52.2521 28.2668M77.5011 28.2668V3.01777L52.2521 3.01777V28.2668M77.5011 28.2668L102.75 28.2668L102.75 3.01777L77.5011 28.2668ZM52.2521 53.5157L52.2521 78.7647M52.2521 53.5157L27.0031 28.2667M52.2521 78.7647L27.0031 78.7647M52.2521 78.7647L52.2521 129.263M27.0031 78.7647L27.0031 53.5157L1.75415 53.5157M27.0031 78.7647L27.0031 129.263H52.2521M27.0031 28.2667L27.0031 3.01776L1.75415 3.01776L1.75415 53.5157M27.0031 28.2667L1.75415 53.5157M27.0031 28.2667L52.2521 28.2668M52.2521 129.263L77.5011 129.263L52.2521 154.512V129.263ZM52.2522 115.65C52.2522 108.677 57.9043 103.025 64.8766 103.025C71.849 103.025 77.5011 108.677 77.5011 115.65C77.5011 122.622 71.849 128.274 64.8766 128.274C57.9043 128.274 52.2522 122.622 52.2522 115.65ZM27.0032 141.887C27.0032 134.915 32.6554 129.263 39.6277 129.263C46.6 129.263 52.2522 134.915 52.2522 141.887C52.2522 148.859 46.6 154.512 39.6277 154.512C32.6554 154.512 27.0032 148.859 27.0032 141.887Z" stroke="#4B3339" stroke-width="2.5"/>
</svg>
