<svg xmlns="http://www.w3.org/2000/svg" fill="none" viewBox="0 0 192 62"><defs/><path fill="currentcolor" style="fill: var(--logo-color, #333)" fill-rule="evenodd" d="M188.51 0L.768 9.84 3.49 61.767l187.742-9.84L188.51 0zM19.575 48.66c1.484 1.418 3.622 2.053 6.413 1.907l-.18-3.42c-1.576.083-2.747-.24-3.511-.969-.742-.709-1.155-1.862-1.239-3.46l-.16-3.068c-.054-1.022-.3-1.853-.74-2.492-.418-.64-.944-1.094-1.578-1.36l-.008-.16c.602-.33 1.078-.835 1.427-1.516.37-.682.528-1.534.475-2.556l-.161-3.068c-.084-1.598.206-2.788.87-3.57.684-.806 1.815-1.25 3.391-1.332l-.18-3.42c-1.448.077-2.683.344-3.706.804-2.945 1.286-4.317 3.836-4.117 7.65l.154 2.94c.047.895.004 1.516-.127 1.865-.111.326-.38.5-.806.523l-.799.042.2 3.803.799-.042c.426-.023.712.133.857.467.166.312.273.915.32 1.81l.152 2.908c.13 2.493.882 4.397 2.254 5.714zm9.032-18.802l-2.3.12.132 2.525 2.3-.12.682 13.005 3.803-.199-.682-13.006 2.844-.15-.132-2.524-2.844.15-.094-1.79c-.038-.725.118-1.224.466-1.499a1.999 1.999 0 011.225-.48c.49-.026 1.039.052 1.647.234l.582-2.947c-1.291-.189-2.374-.26-3.247-.214-1.364.071-2.452.513-3.264 1.325-.892.9-1.297 2.15-1.213 3.748l.095 1.822zm19.07-1.288c-1.875.098-3.222 1.29-4.042 3.576l-.163-3.1-3.77.198.815 15.563 3.77-.198-.356-6.806c-.182-3.473.984-5.275 3.498-5.407a8.386 8.386 0 011.767.1l-.133-3.775c-.562-.12-1.024-.17-1.386-.151zm14.369-.369a8.373 8.373 0 00-2.967-.357c-2.237.117-3.991.882-5.263 2.295-1.393 1.547-2.02 3.652-1.88 6.315.137 2.62.98 4.627 2.526 6.02 1.435 1.292 3.26 1.88 5.476 1.764 2.216-.117 3.948-.89 5.198-2.324 1.392-1.568 2.02-3.652 1.883-6.25-.138-2.642-.982-4.67-2.53-6.085a5.999 5.999 0 00-2.443-1.378zm.05 4.003c.68.776 1.065 1.984 1.15 3.625.087 1.64-.21 2.895-.892 3.764-.682.847-1.587 1.3-2.716 1.36-1.13.059-2.045-.299-2.748-1.074-.683-.797-1.067-2.016-1.153-3.657-.086-1.64.212-2.884.894-3.731.68-.87 1.586-1.333 2.715-1.392 1.15-.06 2.067.308 2.75 1.105zm17.608-5.44c-2.259.117-3.845 1.237-4.76 3.357l-.555-2.663-3.292.173.814 15.53 3.771-.197-.377-7.19c-.051-1.792.251-3.154.908-4.085.677-.933 1.517-1.426 2.518-1.478 1.001-.053 1.794.205 2.38.772.584.546.906 1.395.966 2.545l.476 9.076 3.77-.198-.475-9.075c-.108-2.067-.686-3.703-1.731-4.909-1.025-1.206-2.496-1.76-4.413-1.659zM97.277 42.28c.81-.043 1.903-.378 3.28-1.005l-.682-2.624c-.962.392-1.752.604-2.37.637-1.214.063-1.855-.544-1.922-1.822l-.449-8.564 4.219-.221-.133-2.525-4.218.221-.214-4.09-3.771.197.214 4.09-2.173.114.132 2.525 2.173-.114.456 8.692c.08 1.534.633 2.712 1.66 3.534a4.841 4.841 0 001.642.78c.628.159 1.347.217 2.156.175zm18.575-12.766a6.862 6.862 0 00-1.307-2.303c-1.272-1.45-2.984-2.118-5.136-2.006-2.066.109-3.743.923-5.031 2.443-1.348 1.587-1.957 3.627-1.826 6.12.127 2.429.945 4.383 2.454 5.864 1.463 1.418 3.217 2.074 5.263 1.967 1.746-.092 3.203-.638 4.368-1.639 1.125-.956 1.774-2.219 1.948-3.787l-3.803.2c-.226 1.378-1.117 2.108-2.673 2.19-1.171.061-2.065-.287-2.682-1.045-.616-.758-.979-1.764-1.087-3.02l10.034-.525a14.36 14.36 0 00.022-2.02c-.039-.746-.22-1.559-.544-2.439zm-8.691-.121c.56-.734 1.373-1.13 2.438-1.185.575-.03 1.071.05 1.487.242 1.095.52 1.687 1.62 1.775 3.304l-6.615.346c.049-1.092.355-1.994.915-2.707zm22.006-5.223c-2.258.118-3.844 1.238-4.759 3.358l-.556-2.663-3.291.172.814 15.531 3.77-.197-.376-7.19c-.052-1.792.251-3.154.907-4.086.677-.932 1.517-1.425 2.518-1.477 1.001-.053 1.795.205 2.38.772.584.546.906 1.395.966 2.545l.476 9.075 3.771-.197-.476-9.076c-.108-2.066-.685-3.702-1.731-4.908-1.025-1.206-2.496-1.76-4.413-1.66zm17.861 15.502c1.982-.104 3.402-1.129 4.261-3.075l.573 2.373 3.1-.162-1.149-21.922-3.803.2.436 8.308c-1.062-1.504-2.562-2.205-4.501-2.103-1.938.101-3.519.921-4.741 2.46-1.242 1.58-1.799 3.586-1.672 6.015.128 2.429.925 4.395 2.392 5.899 1.422 1.442 3.123 2.111 5.104 2.007zm-2.818-11.58c.679-.911 1.551-1.395 2.616-1.45 1.065-.057 1.934.218 2.607.824.74.666 1.16 1.552 1.261 2.658l.105 2.013c.059 1.129-.264 2.086-.971 2.87-.686.763-1.488 1.168-2.404 1.216-1.107.058-2.046-.33-2.817-1.166-.771-.857-1.194-2.01-1.27-3.459-.076-1.448.215-2.617.873-3.506zm16.835 9.852c.445.34.969.548 1.571.623-.139.605-.474 1.146-1.004 1.623a9.97 9.97 0 01-1.79 1.311l2.886 1.259a6.69 6.69 0 001.448-1.101c1.339-1.352 1.968-2.806 1.886-4.361-.05-.959-.359-1.754-.926-2.387-.567-.632-1.277-.926-2.129-.882-.852.045-1.511.304-1.978.777-.466.473-.683 1.03-.65 1.668.033.618.261 1.108.686 1.47zm-.199-9.923c.514.443 1.155.645 1.922.605.767-.04 1.394-.308 1.881-.804.486-.495.711-1.105.673-1.83-.038-.724-.326-1.318-.863-1.781-.537-.463-1.189-.675-1.956-.635-.767.04-1.382.318-1.846.834-.465.516-.678 1.136-.64 1.86.038.725.314 1.308.829 1.751zm10.495 10.345c-.663.804-1.782 1.247-3.359 1.33l.179 3.42c1.449-.077 2.685-.334 3.709-.772 2.944-1.308 4.315-3.88 4.114-7.714l-.152-2.908c-.047-.895-.015-1.505.096-1.831.131-.35.41-.535.836-.557l.799-.042-.199-3.803-.799.042c-.426.023-.722-.122-.888-.434-.146-.334-.242-.949-.289-1.843l-.154-2.94c-.13-2.472-.869-4.356-2.219-5.652-1.507-1.438-3.655-2.084-6.446-1.937l.179 3.42c1.576-.084 2.736.24 3.48.97.763.708 1.187 1.86 1.27 3.459l.161 3.067c.054 1.023.29 1.854.708 2.495.439.639.975 1.091 1.609 1.357l.008.16c-.602.33-1.088.837-1.458 1.519-.349.68-.497 1.532-.443 2.554l.161 3.068c.083 1.598-.217 2.788-.903 3.572z" clip-rule="evenodd"/></svg>